<svg version="1.1" id="Logos" xmlns="http://www.w3.org/2000/svg" x="0" y="0" width="294" height="81.1" style="enable-background:new 0 0 294 81.1" xml:space="preserve"><style>.st1{fill:#fff}</style><g id="Logo_-_On_Dark"><path class="st1" d="M116.2 45.3v15.5h-6.8V45.3c0-3.9-2.5-6.2-6-6.2-3 0-6.8 1.8-6.8 6.8v14.9h-6.9V19.4h6.9v18.1c1.3-3.6 5.2-5.1 9-5.1 6.6 0 10.6 4.9 10.6 12.9zM122.2 23.7c0-2.4 1.4-3.7 3.8-3.7 2.5 0 3.9 1.3 3.9 3.7s-1.4 3.8-3.9 3.8c-2.4-.1-3.8-1.4-3.8-3.8zm.4 9.3h6.9v27.9h-6.9V33zM154.4 32.4v6.5h-3.3c-7.7 0-8 7.8-8 7.8v14.1h-6.9V33h6.9v6.2s1.6-6.8 8-6.8h3.3zM184.7 49H163c.7 4.5 3.9 6.7 8 6.7 2.8 0 5.4-1 7.2-3.5l5 3.3c-2.5 3.9-7.5 6-12.3 6-8.2 0-14.7-5.8-14.7-14.6 0-8.7 6.5-14.4 14.5-14.4 7.8 0 14.2 5.6 14.2 14.3l-.2 2.2zm-6.5-4.1c0-4.3-3.6-6.6-7.4-6.6-3.6 0-7 2-7.8 6.6h15.2zM216.9 45.3v15.5H210V45.3c0-3.9-2.5-6.2-6-6.2-3 0-6.8 1.8-6.8 6.8v14.9h-6.9V19.4h6.9v18.1c1.3-3.6 5.2-5.1 9-5.1 6.7 0 10.7 4.9 10.7 12.9zM222.9 23.7c0-2.4 1.4-3.7 3.8-3.7 2.5 0 3.9 1.3 3.9 3.7s-1.4 3.8-3.9 3.8c-2.4-.1-3.8-1.4-3.8-3.8zm.4 9.3h6.9v27.9h-6.9V33zM263.5 33l-11.9 27.9h-6.2L233.7 33h7.3l7.6 19.4 7.5-19.4h7.4zM293.9 49h-21.7c.7 4.5 3.9 6.7 8 6.7 2.8 0 5.4-1 7.2-3.5l5 3.3c-2.5 3.9-7.5 6-12.3 6-8.2 0-14.7-5.8-14.7-14.6 0-8.7 6.5-14.4 14.5-14.4 7.8 0 14.2 5.6 14.2 14.3l-.2 2.2zm-6.5-4.1c0-4.3-3.6-6.6-7.4-6.6-3.6 0-7 2-7.8 6.6h15.2z"/><path id="Symbol_-_On_Dark" d="M14 15.1c0-1.9-1.3-2.6-3-1.7l-8 4.7c-1.6.9-3 3.2-3 5.1v34.7c0 1.9 1.3 4.2 3 5.1l30 17.4c1.6.9 4.3.9 5.9 0L69 63.1c1.6-.9 3-3.2 3-5.1V23.2c0-1.9-1.3-4.2-3-5.1L39 .7c-1.6-.9-4.3-.9-5.9 0L25 5.4c-1.6.9-3 3.2-3 5.1v38.7c0 1 .7 2.1 1.5 2.6l3.5 2c1.6.9 3 .2 3-1.7V38.3c0-.6.5-1.4 1-1.7l4-2.3c.6-.3 1.5-.3 2 0l4 2.3c.5.3 1 1.1 1 1.7v13.9c0 1.9 1.3 2.6 3 1.7l3.5-2c.8-.5 1.5-1.7 1.5-2.6v-15c0-1-.7-2.1-1.5-2.6l-11-6.3c-.8-.5-2.2-.5-3 0L30 27.9v-15c0-.6.5-1.4 1-1.7l4-2.3c.6-.3 1.5-.3 2 0l26 15c.5.3 1 1.1 1 1.7v30c0 .6-.5 1.4-1 1.7l-26 15c-.5.3-1.5.3-2 0l-26-15c-.6-.3-1-1.1-1-1.7v-30c0-.6.4-1.4 1-1.7l3.5-2c.8-.5 1.5-1.7 1.5-2.6v-4.2z" style="fill:#fec32d"/></g></svg>