<svg xmlns="http://www.w3.org/2000/svg" width="60px" height="40px" viewBox="0 0 1600 1600" version="1.1"><path d="M 355.500 123.076 C 343.667 124.399, 329.842 126.828, 322.500 128.874 C 318.650 129.947, 313.025 131.511, 310 132.348 C 303.992 134.012, 291.477 138.961, 280.500 144.015 C 274.192 146.920, 255.240 157.604, 254 158.955 C 253.725 159.255, 252.780 159.950, 251.900 160.500 C 247.422 163.298, 242.232 167.003, 240 168.995 C 238.625 170.223, 235.925 172.407, 234 173.851 C 229.994 176.853, 220.677 185.403, 214.222 192 C 206.452 199.941, 191.005 219.829, 187.427 226.500 C 185.397 230.286, 183.499 233.501, 183 234 C 182.725 234.275, 181.938 235.512, 181.250 236.750 C 180.563 237.988, 179.552 239.787, 179.004 240.750 C 175.106 247.596, 167.242 266.434, 163.898 276.933 C 158.195 294.841, 158.345 294.267, 155.809 308 L 153.500 320.500 153.500 800 L 153.500 1279.500 155.881 1292.500 C 157.191 1299.650, 158.595 1305.950, 159.001 1306.500 C 159.407 1307.050, 160.060 1309.300, 160.452 1311.500 C 162.094 1320.724, 174.303 1351.972, 179.010 1359 C 179.562 1359.825, 180.565 1361.625, 181.237 1363 C 181.909 1364.375, 182.715 1365.725, 183.028 1366 C 183.340 1366.275, 184.884 1368.750, 186.458 1371.500 C 194.274 1385.154, 208.192 1402.435, 221.398 1414.883 C 224.093 1417.422, 227.243 1420.401, 228.398 1421.503 C 229.554 1422.604, 232.525 1425.073, 235 1426.988 C 237.475 1428.904, 240.134 1431.080, 240.910 1431.824 C 242.165 1433.028, 247.450 1436.720, 251.900 1439.500 C 252.780 1440.050, 253.725 1440.729, 254 1441.009 C 256.218 1443.267, 276.896 1454.437, 287.243 1458.967 C 294.932 1462.333, 307.230 1466.992, 311 1467.967 C 312.925 1468.464, 317.875 1469.823, 322 1470.987 C 328.737 1472.887, 337.645 1474.564, 354 1477.009 C 362.128 1478.224, 1299.987 1478.190, 1308 1476.974 C 1311.575 1476.432, 1315.175 1475.839, 1316 1475.657 C 1316.825 1475.476, 1319.750 1475.009, 1322.500 1474.620 C 1332.407 1473.218, 1357.488 1465.999, 1366.739 1461.885 C 1369.071 1460.848, 1371.658 1460, 1372.489 1460 C 1373.320 1460, 1374 1459.550, 1374 1459 C 1374 1458.450, 1374.603 1458, 1375.340 1458 C 1376.996 1458, 1394.778 1449.006, 1398.838 1446.116 C 1400.472 1444.952, 1402.057 1444, 1402.360 1444 C 1402.663 1444, 1405.519 1442.197, 1408.706 1439.994 C 1417.003 1434.257, 1418.991 1432.811, 1422.436 1430.001 C 1424.121 1428.626, 1426.086 1427.051, 1426.802 1426.501 C 1428.267 1425.374, 1433.119 1420.932, 1441.099 1413.409 C 1450.925 1404.147, 1460.223 1393.213, 1467.260 1382.647 C 1469.877 1378.716, 1472.360 1375.050, 1472.776 1374.500 C 1474.137 1372.700, 1482 1359.164, 1482 1358.619 C 1482 1358.327, 1483.298 1355.887, 1484.884 1353.196 C 1486.471 1350.506, 1488.110 1347.227, 1488.528 1345.911 C 1488.946 1344.595, 1490.525 1340.814, 1492.037 1337.509 C 1493.549 1334.204, 1495.094 1330.043, 1495.470 1328.261 C 1495.846 1326.480, 1496.569 1324.766, 1497.077 1324.452 C 1497.585 1324.139, 1498 1323.134, 1498 1322.219 C 1498 1321.305, 1498.848 1317.619, 1499.885 1314.028 C 1504.275 1298.821, 1505.732 1290.537, 1507.981 1268 C 1509.262 1255.157, 1509.262 344.843, 1507.981 332 C 1505.758 309.730, 1504.721 303.752, 1499.823 285 C 1498.746 280.875, 1497.473 276.600, 1496.995 275.500 C 1496.517 274.400, 1495.822 272.375, 1495.450 271 C 1495.079 269.625, 1493.540 265.796, 1492.031 262.491 C 1490.522 259.186, 1488.943 255.361, 1488.522 253.991 C 1488.100 252.621, 1487.409 251.050, 1486.987 250.500 C 1486.564 249.950, 1484.235 245.675, 1481.812 241 C 1477.877 233.410, 1475.012 228.500, 1472.767 225.500 C 1472.356 224.950, 1469.877 221.284, 1467.260 217.353 C 1458.380 204.019, 1447.691 191.967, 1434.410 180.315 C 1431.160 177.463, 1426.925 173.736, 1425 172.032 C 1423.075 170.329, 1420.263 168.178, 1418.750 167.252 C 1417.237 166.326, 1416 165.216, 1416 164.784 C 1416 164.353, 1415.629 164, 1415.176 164 C 1414.722 164, 1410.335 161.357, 1405.426 158.126 C 1390.305 148.175, 1371.616 139.119, 1355.500 133.933 C 1351.650 132.694, 1347.600 131.368, 1346.500 130.987 C 1338.140 128.088, 1319.667 124.623, 1304 123.015 C 1293.454 121.932, 365.196 121.992, 355.500 123.076 M 379.982 711.750 C 379.972 713.263, 379.958 747.800, 379.951 788.500 L 379.937 862.500 389.135 862.790 C 395.816 863, 398.557 862.727, 399.151 861.790 C 399.601 861.080, 399.976 848.544, 399.985 833.932 C 400.002 804.588, 400.744 799.527, 405.726 794.773 C 409.346 791.320, 413.017 790, 419 790 C 427.302 790, 430.783 792.053, 433.770 798.715 C 435.218 801.943, 435.518 806.952, 435.811 832.750 L 436.154 863 446.150 863 L 456.145 863 455.749 830.250 C 455.300 793.091, 454.702 789.351, 447.980 781.715 C 442.742 775.764, 436.271 772.781, 427.357 772.209 C 418.336 771.630, 412.337 773.083, 405.384 777.531 L 400 780.975 399.882 745.738 C 399.816 726.357, 399.816 710.163, 399.882 709.750 C 399.947 709.337, 395.500 709, 390 709 L 380 709 379.982 711.750 M 847.667 709.667 C 847.300 710.033, 847 744.683, 847 786.667 L 847 863 857 863 L 867 863 867.008 840.750 C 867.020 805.075, 868.666 796.667, 876.500 792.275 C 881.792 789.309, 891.100 789.154, 895.696 791.956 C 902.449 796.074, 902.447 796.064, 903 830.953 L 903.500 862.500 913.320 862.787 L 923.139 863.074 922.820 828.287 C 922.509 794.428, 922.439 793.367, 920.196 788.500 C 915.547 778.408, 907.299 773.002, 895.354 772.219 C 886.274 771.623, 879.221 773.313, 872.825 777.618 C 870.061 779.478, 867.619 781, 867.400 781 C 867.180 781, 867 764.800, 867 745 L 867 709 857.667 709 C 852.533 709, 848.033 709.300, 847.667 709.667 M 520.387 727.284 C 511.653 735.289, 517.230 749.993, 529 749.993 C 538.412 749.993, 544.847 739.406, 540.520 731.039 C 538.041 726.245, 534.319 724, 528.850 724 C 524.729 724, 523.414 724.510, 520.387 727.284 M 973.329 770.430 C 969.820 771.987, 968 774.647, 968 778.218 C 968 779.509, 970.711 784.377, 974.023 789.033 C 977.336 793.690, 982.291 800.749, 985.034 804.720 C 990.355 812.424, 992.308 814, 996.534 814 C 999.776 814, 1003.269 810.474, 1011.474 798.915 C 1023.456 782.035, 1024 781.116, 1023.985 777.774 C 1023.966 773.728, 1023.301 772.687, 1019.500 770.751 C 1015.277 768.600, 978.036 768.341, 973.329 770.430 M 632.524 774.063 C 630.337 775.154, 627.074 777.474, 625.274 779.219 L 622 782.392 622 778.196 L 622 774 612 774 L 602 774 602 818.500 L 602 863 612 863 L 622 863 622.012 836.250 C 622.025 806.614, 622.826 800.878, 627.659 795.834 C 629.180 794.246, 631.792 792.579, 633.462 792.129 C 637.030 791.167, 645.085 791.757, 646.450 793.079 C 649.070 795.619, 651.086 793.857, 655.009 785.600 C 657.204 780.980, 659 776.962, 659 776.672 C 659 776.381, 656.508 775.211, 653.462 774.072 C 646.335 771.405, 637.860 771.402, 632.524 774.063 M 732.500 773.399 C 711.430 780.062, 699.606 802.947, 703.944 828.667 C 707.098 847.367, 719.120 860.293, 737.241 864.466 C 747.242 866.770, 760.913 864.815, 769.731 859.820 C 776.145 856.187, 789.698 841.156, 787.918 839.649 C 785.999 838.023, 772.729 830.932, 772.071 831.181 C 771.607 831.356, 769.713 833.483, 767.863 835.906 C 762.859 842.463, 758.121 845.851, 752.486 846.904 C 738.484 849.520, 727.246 841.401, 724.589 826.750 L 723.909 823 755.955 823 L 788 823 788 816.660 C 788 808.783, 784.916 796.420, 781.496 790.583 C 776.574 782.185, 768.261 775.957, 758.500 773.356 C 752.262 771.694, 737.816 771.718, 732.500 773.399 M 1220.850 773.915 C 1203.307 779.526, 1192.814 796.315, 1192.952 818.556 C 1193.080 839.117, 1201.136 853.716, 1216.303 860.872 C 1226.176 865.531, 1235.187 866.568, 1246.396 864.338 C 1258.102 862.009, 1267.259 855.926, 1273.998 846.002 C 1278.473 839.414, 1278.825 840.159, 1268.557 834.507 L 1261.613 830.686 1259.066 834.093 C 1253.028 842.169, 1248.346 845.742, 1242.476 846.753 C 1236.147 847.843, 1228.952 846.854, 1225.164 844.372 C 1219.491 840.654, 1214 831.624, 1214 826.011 L 1214 823 1246 823 L 1278 823 1278 818.750 C 1278 813.297, 1275.473 800.068, 1273.555 795.478 C 1269.409 785.554, 1260.786 777.633, 1250.273 774.092 C 1242.274 771.397, 1228.971 771.317, 1220.850 773.915 M 519 818.464 L 519 863 529.010 863 L 539.021 863 538.760 818.750 L 538.500 774.500 528.750 774.214 L 519 773.928 519 818.464 M 1058 774.498 C 1058 775.057, 1070.510 801.306, 1089.934 841.500 C 1102.830 868.187, 1102.222 867, 1102.997 867 C 1103.360 867, 1108.543 856.987, 1114.515 844.750 C 1140.294 791.925, 1148 775.865, 1148 774.961 C 1148 774.406, 1143.447 774, 1137.211 774 L 1126.423 774 1115.336 798.209 C 1109.238 811.523, 1103.827 822.558, 1103.312 822.729 C 1102.797 822.901, 1101.403 820.895, 1100.214 818.271 C 1099.025 815.647, 1093.994 804.725, 1089.033 794 L 1080.014 774.500 1069.007 774.217 C 1062.953 774.062, 1058 774.188, 1058 774.498 M 739.030 791.113 C 734.667 792.854, 730.036 797.009, 727.991 801.018 C 726.896 803.164, 726 805.163, 726 805.460 C 726 805.757, 735.231 806, 746.513 806 L 767.027 806 765.466 802.264 C 763.388 797.291, 760.350 794.128, 755.500 791.890 C 751.171 789.892, 743.049 789.509, 739.030 791.113 M 1227.500 791.912 C 1222.204 794.531, 1220.662 795.865, 1218.130 800.018 C 1214.410 806.120, 1214.051 806, 1236 806 C 1251.359 806, 1255.989 805.710, 1255.952 804.750 C 1255.834 801.669, 1252.141 796.331, 1248.229 793.588 C 1242.607 789.644, 1233.565 788.913, 1227.500 791.912 M 987.492 819.785 C 985.838 820.825, 983.138 823.436, 981.492 825.588 L 978.500 829.500 978.500 899.500 L 978.500 969.500 985.317 981.248 C 992.427 993.500, 994.567 995.373, 998.844 993.083 C 1000.673 992.105, 1008.741 978.784, 1011.794 971.703 C 1012.697 969.609, 1013 951.426, 1013 899.354 C 1013 822.497, 1013.238 825.442, 1006.649 820.750 C 1002.292 817.647, 991.737 817.116, 987.492 819.785" stroke="none" fill="#1d81f3" fill-rule="evenodd"/><path d="M 0 800.001 L 0 1600.001 800.250 1599.751 L 1600.500 1599.500 1600.751 799.750 L 1601.001 0 800.501 0 L 0 0 0 800.001 M 0.498 800.500 C 0.498 1240.500, 0.611 1420.650, 0.750 1200.832 C 0.889 981.015, 0.889 621.015, 0.750 400.832 C 0.611 180.650, 0.498 360.500, 0.498 800.500 M 355.500 123.076 C 343.667 124.399, 329.842 126.828, 322.500 128.874 C 318.650 129.947, 313.025 131.511, 310 132.348 C 303.992 134.012, 291.477 138.961, 280.500 144.015 C 274.192 146.920, 255.240 157.604, 254 158.955 C 253.725 159.255, 252.780 159.950, 251.900 160.500 C 247.422 163.298, 242.232 167.003, 240 168.995 C 238.625 170.223, 235.925 172.407, 234 173.851 C 229.994 176.853, 220.677 185.403, 214.222 192 C 206.452 199.941, 191.005 219.829, 187.427 226.500 C 185.397 230.286, 183.499 233.501, 183 234 C 182.725 234.275, 181.938 235.512, 181.250 236.750 C 180.563 237.988, 179.552 239.787, 179.004 240.750 C 175.106 247.596, 167.242 266.434, 163.898 276.933 C 158.195 294.841, 158.345 294.267, 155.809 308 L 153.500 320.500 153.500 800 L 153.500 1279.500 155.881 1292.500 C 157.191 1299.650, 158.595 1305.950, 159.001 1306.500 C 159.407 1307.050, 160.060 1309.300, 160.452 1311.500 C 162.094 1320.724, 174.303 1351.972, 179.010 1359 C 179.562 1359.825, 180.565 1361.625, 181.237 1363 C 181.909 1364.375, 182.715 1365.725, 183.028 1366 C 183.340 1366.275, 184.884 1368.750, 186.458 1371.500 C 194.274 1385.154, 208.192 1402.435, 221.398 1414.883 C 224.093 1417.422, 227.243 1420.401, 228.398 1421.503 C 229.554 1422.604, 232.525 1425.073, 235 1426.988 C 237.475 1428.904, 240.134 1431.080, 240.910 1431.824 C 242.165 1433.028, 247.450 1436.720, 251.900 1439.500 C 252.780 1440.050, 253.725 1440.729, 254 1441.009 C 256.218 1443.267, 276.896 1454.437, 287.243 1458.967 C 294.932 1462.333, 307.230 1466.992, 311 1467.967 C 312.925 1468.464, 317.875 1469.823, 322 1470.987 C 328.737 1472.887, 337.645 1474.564, 354 1477.009 C 362.128 1478.224, 1299.987 1478.190, 1308 1476.974 C 1311.575 1476.432, 1315.175 1475.839, 1316 1475.657 C 1316.825 1475.476, 1319.750 1475.009, 1322.500 1474.620 C 1332.407 1473.218, 1357.488 1465.999, 1366.739 1461.885 C 1369.071 1460.848, 1371.658 1460, 1372.489 1460 C 1373.320 1460, 1374 1459.550, 1374 1459 C 1374 1458.450, 1374.603 1458, 1375.340 1458 C 1376.996 1458, 1394.778 1449.006, 1398.838 1446.116 C 1400.472 1444.952, 1402.057 1444, 1402.360 1444 C 1402.663 1444, 1405.519 1442.197, 1408.706 1439.994 C 1417.003 1434.257, 1418.991 1432.811, 1422.436 1430.001 C 1424.121 1428.626, 1426.086 1427.051, 1426.802 1426.501 C 1428.267 1425.374, 1433.119 1420.932, 1441.099 1413.409 C 1450.925 1404.147, 1460.223 1393.213, 1467.260 1382.647 C 1469.877 1378.716, 1472.360 1375.050, 1472.776 1374.500 C 1474.137 1372.700, 1482 1359.164, 1482 1358.619 C 1482 1358.327, 1483.298 1355.887, 1484.884 1353.196 C 1486.471 1350.506, 1488.110 1347.227, 1488.528 1345.911 C 1488.946 1344.595, 1490.525 1340.814, 1492.037 1337.509 C 1493.549 1334.204, 1495.094 1330.043, 1495.470 1328.261 C 1495.846 1326.480, 1496.569 1324.766, 1497.077 1324.452 C 1497.585 1324.139, 1498 1323.134, 1498 1322.219 C 1498 1321.305, 1498.848 1317.619, 1499.885 1314.028 C 1504.275 1298.821, 1505.732 1290.537, 1507.981 1268 C 1509.262 1255.157, 1509.262 344.843, 1507.981 332 C 1505.758 309.730, 1504.721 303.752, 1499.823 285 C 1498.746 280.875, 1497.473 276.600, 1496.995 275.500 C 1496.517 274.400, 1495.822 272.375, 1495.450 271 C 1495.079 269.625, 1493.540 265.796, 1492.031 262.491 C 1490.522 259.186, 1488.943 255.361, 1488.522 253.991 C 1488.100 252.621, 1487.409 251.050, 1486.987 250.500 C 1486.564 249.950, 1484.235 245.675, 1481.812 241 C 1477.877 233.410, 1475.012 228.500, 1472.767 225.500 C 1472.356 224.950, 1469.877 221.284, 1467.260 217.353 C 1458.380 204.019, 1447.691 191.967, 1434.410 180.315 C 1431.160 177.463, 1426.925 173.736, 1425 172.032 C 1423.075 170.329, 1420.263 168.178, 1418.750 167.252 C 1417.237 166.326, 1416 165.216, 1416 164.784 C 1416 164.353, 1415.629 164, 1415.176 164 C 1414.722 164, 1410.335 161.357, 1405.426 158.126 C 1390.305 148.175, 1371.616 139.119, 1355.500 133.933 C 1351.650 132.694, 1347.600 131.368, 1346.500 130.987 C 1338.140 128.088, 1319.667 124.623, 1304 123.015 C 1293.454 121.932, 365.196 121.992, 355.500 123.076 M 379.982 711.750 C 379.972 713.263, 379.958 747.800, 379.951 788.500 L 379.937 862.500 389.135 862.790 C 395.816 863, 398.557 862.727, 399.151 861.790 C 399.601 861.080, 399.976 848.544, 399.985 833.932 C 400.002 804.588, 400.744 799.527, 405.726 794.773 C 409.346 791.320, 413.017 790, 419 790 C 427.302 790, 430.783 792.053, 433.770 798.715 C 435.218 801.943, 435.518 806.952, 435.811 832.750 L 436.154 863 446.150 863 L 456.145 863 455.749 830.250 C 455.300 793.091, 454.702 789.351, 447.980 781.715 C 442.742 775.764, 436.271 772.781, 427.357 772.209 C 418.336 771.630, 412.337 773.083, 405.384 777.531 L 400 780.975 399.882 745.738 C 399.816 726.357, 399.816 710.163, 399.882 709.750 C 399.947 709.337, 395.500 709, 390 709 L 380 709 379.982 711.750 M 847.667 709.667 C 847.300 710.033, 847 744.683, 847 786.667 L 847 863 857 863 L 867 863 867.008 840.750 C 867.020 805.075, 868.666 796.667, 876.500 792.275 C 881.792 789.309, 891.100 789.154, 895.696 791.956 C 902.449 796.074, 902.447 796.064, 903 830.953 L 903.500 862.500 913.320 862.787 L 923.139 863.074 922.820 828.287 C 922.509 794.428, 922.439 793.367, 920.196 788.500 C 915.547 778.408, 907.299 773.002, 895.354 772.219 C 886.274 771.623, 879.221 773.313, 872.825 777.618 C 870.061 779.478, 867.619 781, 867.400 781 C 867.180 781, 867 764.800, 867 745 L 867 709 857.667 709 C 852.533 709, 848.033 709.300, 847.667 709.667 M 520.387 727.284 C 511.653 735.289, 517.230 749.993, 529 749.993 C 538.412 749.993, 544.847 739.406, 540.520 731.039 C 538.041 726.245, 534.319 724, 528.850 724 C 524.729 724, 523.414 724.510, 520.387 727.284 M 973.329 770.430 C 969.820 771.987, 968 774.647, 968 778.218 C 968 779.509, 970.711 784.377, 974.023 789.033 C 977.336 793.690, 982.291 800.749, 985.034 804.720 C 990.355 812.424, 992.308 814, 996.534 814 C 999.776 814, 1003.269 810.474, 1011.474 798.915 C 1023.456 782.035, 1024 781.116, 1023.985 777.774 C 1023.966 773.728, 1023.301 772.687, 1019.500 770.751 C 1015.277 768.600, 978.036 768.341, 973.329 770.430 M 632.524 774.063 C 630.337 775.154, 627.074 777.474, 625.274 779.219 L 622 782.392 622 778.196 L 622 774 612 774 L 602 774 602 818.500 L 602 863 612 863 L 622 863 622.012 836.250 C 622.025 806.614, 622.826 800.878, 627.659 795.834 C 629.180 794.246, 631.792 792.579, 633.462 792.129 C 637.030 791.167, 645.085 791.757, 646.450 793.079 C 649.070 795.619, 651.086 793.857, 655.009 785.600 C 657.204 780.980, 659 776.962, 659 776.672 C 659 776.381, 656.508 775.211, 653.462 774.072 C 646.335 771.405, 637.860 771.402, 632.524 774.063 M 732.500 773.399 C 711.430 780.062, 699.606 802.947, 703.944 828.667 C 707.098 847.367, 719.120 860.293, 737.241 864.466 C 747.242 866.770, 760.913 864.815, 769.731 859.820 C 776.145 856.187, 789.698 841.156, 787.918 839.649 C 785.999 838.023, 772.729 830.932, 772.071 831.181 C 771.607 831.356, 769.713 833.483, 767.863 835.906 C 762.859 842.463, 758.121 845.851, 752.486 846.904 C 738.484 849.520, 727.246 841.401, 724.589 826.750 L 723.909 823 755.955 823 L 788 823 788 816.660 C 788 808.783, 784.916 796.420, 781.496 790.583 C 776.574 782.185, 768.261 775.957, 758.500 773.356 C 752.262 771.694, 737.816 771.718, 732.500 773.399 M 1220.850 773.915 C 1203.307 779.526, 1192.814 796.315, 1192.952 818.556 C 1193.080 839.117, 1201.136 853.716, 1216.303 860.872 C 1226.176 865.531, 1235.187 866.568, 1246.396 864.338 C 1258.102 862.009, 1267.259 855.926, 1273.998 846.002 C 1278.473 839.414, 1278.825 840.159, 1268.557 834.507 L 1261.613 830.686 1259.066 834.093 C 1253.028 842.169, 1248.346 845.742, 1242.476 846.753 C 1236.147 847.843, 1228.952 846.854, 1225.164 844.372 C 1219.491 840.654, 1214 831.624, 1214 826.011 L 1214 823 1246 823 L 1278 823 1278 818.750 C 1278 813.297, 1275.473 800.068, 1273.555 795.478 C 1269.409 785.554, 1260.786 777.633, 1250.273 774.092 C 1242.274 771.397, 1228.971 771.317, 1220.850 773.915 M 519 818.464 L 519 863 529.010 863 L 539.021 863 538.760 818.750 L 538.500 774.500 528.750 774.214 L 519 773.928 519 818.464 M 1058 774.498 C 1058 775.057, 1070.510 801.306, 1089.934 841.500 C 1102.830 868.187, 1102.222 867, 1102.997 867 C 1103.360 867, 1108.543 856.987, 1114.515 844.750 C 1140.294 791.925, 1148 775.865, 1148 774.961 C 1148 774.406, 1143.447 774, 1137.211 774 L 1126.423 774 1115.336 798.209 C 1109.238 811.523, 1103.827 822.558, 1103.312 822.729 C 1102.797 822.901, 1101.403 820.895, 1100.214 818.271 C 1099.025 815.647, 1093.994 804.725, 1089.033 794 L 1080.014 774.500 1069.007 774.217 C 1062.953 774.062, 1058 774.188, 1058 774.498 M 739.030 791.113 C 734.667 792.854, 730.036 797.009, 727.991 801.018 C 726.896 803.164, 726 805.163, 726 805.460 C 726 805.757, 735.231 806, 746.513 806 L 767.027 806 765.466 802.264 C 763.388 797.291, 760.350 794.128, 755.500 791.890 C 751.171 789.892, 743.049 789.509, 739.030 791.113 M 1227.500 791.912 C 1222.204 794.531, 1220.662 795.865, 1218.130 800.018 C 1214.410 806.120, 1214.051 806, 1236 806 C 1251.359 806, 1255.989 805.710, 1255.952 804.750 C 1255.834 801.669, 1252.141 796.331, 1248.229 793.588 C 1242.607 789.644, 1233.565 788.913, 1227.500 791.912 M 987.492 819.785 C 985.838 820.825, 983.138 823.436, 981.492 825.588 L 978.500 829.500 978.500 899.500 L 978.500 969.500 985.317 981.248 C 992.427 993.500, 994.567 995.373, 998.844 993.083 C 1000.673 992.105, 1008.741 978.784, 1011.794 971.703 C 1012.697 969.609, 1013 951.426, 1013 899.354 C 1013 822.497, 1013.238 825.442, 1006.649 820.750 C 1002.292 817.647, 991.737 817.116, 987.492 819.785" stroke="none" fill="#082F49" fill-rule="evenodd"/></svg>