<?xml version="1.0" standalone="no"?>
<!DOCTYPE svg PUBLIC "-//W3C//DTD SVG 20010904//EN"
 "http://www.w3.org/TR/2001/REC-SVG-20010904/DTD/svg10.dtd">
<svg version="1.0" xmlns="http://www.w3.org/2000/svg"
 width="225.000000pt" height="225.000000pt" viewBox="0 0 225.000000 225.000000"
 preserveAspectRatio="xMidYMid meet">

<g transform="translate(0.000000,225.000000) scale(0.100000,-0.100000)"
fill="#000000" stroke="none">
<path d="M992 1967 c-34 -36 -24 -115 21 -164 19 -21 30 -23 117 -23 87 0 98
2 117 23 45 50 55 132 20 165 -21 20 -34 22 -138 22 -108 0 -117 -2 -137 -23z
m106 -50 c4 -20 -25 -34 -40 -19 -15 15 -1 44 19 40 10 -2 19 -11 21 -21z
m110 -30 c4 -20 -25 -34 -40 -19 -15 15 -1 44 19 40 10 -2 19 -11 21 -21z"/>
<path d="M1061 1716 c-10 -11 -111 -711 -111 -765 0 -27 160 -241 180 -241 11
0 51 44 104 115 l86 114 -55 382 c-30 210 -60 388 -66 395 -16 19 -123 19
-138 0z m39 -176 c0 -24 -26 -38 -42 -22 -16 16 -2 42 22 42 13 0 20 -7 20
-20z m101 -124 c-16 -19 -41 -10 -41 14 0 24 21 31 39 14 11 -10 12 -16 2 -28z
m-101 -66 c0 -23 -13 -32 -34 -24 -19 7 -21 25 -5 41 16 16 39 5 39 -17z m105
-105 c0 -13 -8 -21 -22 -23 -17 -3 -23 2 -23 16 0 10 3 22 7 26 13 13 38 1 38
-19z m-107 -59 c-4 -25 -36 -34 -44 -12 -8 21 13 46 32 39 8 -3 14 -15 12 -27z
m96 -82 c9 -3 16 -12 16 -18 0 -18 -21 -35 -36 -29 -15 5 -19 35 -7 46 8 8 8
8 27 1z m-96 -47 c4 -20 -25 -34 -40 -19 -15 15 -1 44 19 40 10 -2 19 -11 21
-21z m-53 -112 c0 -30 -39 -27 -43 3 -3 20 0 23 20 20 15 -2 23 -10 23 -23z
m102 -36 c16 -16 5 -39 -17 -39 -25 0 -35 18 -20 35 15 18 22 19 37 4z"/>
<path d="M473 563 l-33 -4 0 -89 c0 -50 -4 -90 -10 -92 -6 -1 10 -3 34 -3 29
0 42 4 36 9 -14 14 -12 160 2 174 7 7 10 11 8 10 -3 0 -20 -3 -37 -5z"/>
<path d="M550 556 c13 -13 13 -159 1 -172 -6 -5 6 -9 35 -9 24 0 40 2 34 3 -6
2 -10 42 -10 92 l0 88 -35 4 c-23 3 -32 1 -25 -6z"/>
<path d="M655 470 l0 -95 35 0 35 -1 0 96 0 95 -35 0 -35 0 0 -95z"/>
<path d="M760 556 c13 -13 13 -173 0 -178 -5 -1 10 -3 34 -3 24 0 40 3 34 6
-5 3 -9 24 -8 45 1 22 2 60 1 85 -1 46 -2 47 -36 51 -23 3 -32 1 -25 -6z"/>
<path d="M955 469 l0 -96 37 1 c25 0 34 4 28 12 -5 6 -9 47 -7 91 l2 81 -30 4
-30 3 0 -96z"/>
<path d="M1223 563 l-33 -4 0 -89 c0 -50 -4 -90 -10 -92 -6 -1 10 -3 35 -3 28
0 41 4 35 9 -14 14 -12 160 2 174 7 7 10 11 8 10 -3 0 -20 -3 -37 -5z"/>
<path d="M1300 556 c13 -13 13 -159 1 -172 -6 -5 6 -9 35 -9 24 0 40 2 34 3
-6 2 -10 42 -10 92 l0 88 -35 4 c-23 3 -32 1 -25 -6z"/>
<path d="M1405 470 l0 -95 35 0 35 -1 -3 92 -3 92 -32 4 -32 3 0 -95z"/>
<path d="M1638 557 c5 -7 11 -19 14 -27 3 -10 6 -8 10 7 4 15 0 23 -14 26 -14
4 -16 2 -10 -6z"/>
<path d="M1695 469 l0 -97 35 2 35 1 -3 91 -3 92 -32 4 -32 3 0 -96z"/>
<path d="M858 521 c2 -21 -1 -41 -6 -45 -7 -4 -7 -17 0 -39 18 -54 24 -62 53
-65 22 -3 27 0 21 13 -3 9 -9 27 -12 40 -3 12 -15 27 -27 32 l-22 10 22 7 c47
15 37 86 -11 86 -19 0 -21 -5 -18 -39z"/>
<path d="M1067 548 c6 -7 13 -20 16 -28 3 -9 6 -3 6 13 1 19 -4 27 -15 27 -12
0 -14 -4 -7 -12z"/>
<path d="M1501 553 c1 -20 75 -177 85 -180 6 -2 16 8 22 22 9 20 9 30 -2 48
-7 12 -21 43 -31 70 -16 41 -21 47 -46 47 -16 0 -29 -3 -28 -7z"/>
<path d="M1811 543 c7 -10 15 -20 16 -22 2 -2 3 5 3 17 0 14 -6 22 -16 22 -14
0 -15 -3 -3 -17z"/>
<path d="M1042 490 c-10 -17 -10 -23 3 -36 13 -14 15 -12 15 20 0 42 -1 43
-18 16z"/>
<path d="M1783 485 c-10 -10 -9 -16 2 -25 13 -10 15 -8 15 14 0 30 -1 30 -17
11z"/>
<path d="M1091 432 c0 -7 -12 -24 -25 -37 l-23 -23 26 2 c26 3 36 22 28 54 -3
9 -5 11 -6 4z"/>
<path d="M1830 428 c0 -6 -9 -22 -21 -34 l-20 -21 25 0 c23 0 26 4 26 33 0 19
-2 34 -5 34 -3 0 -5 -5 -5 -12z"/>
</g>
</svg>
