<svg id="svg" version="1.1" xmlns="http://www.w3.org/2000/svg" xmlns:xlink="http://www.w3.org/1999/xlink" width="400" height="400" viewBox="0, 0, 400,400"><g id="svgg"><path id="path0" d="M0.000 200.000 L 0.000 400.000 200.000 400.000 L 400.000 400.000 400.000 200.000 L 400.000 0.000 200.000 0.000 L 0.000 0.000 0.000 200.000 M327.000 30.746 C 330.559 31.247,332.266 31.582,335.500 32.410 C 337.356 32.885,339.230 33.437,339.663 33.637 C 340.096 33.837,340.529 34.000,340.625 34.000 C 340.721 34.000,341.154 34.162,341.587 34.359 C 342.020 34.557,343.050 34.999,343.875 35.341 C 346.181 36.297,350.900 38.915,351.705 39.684 C 351.887 39.858,352.132 40.000,352.250 40.000 C 352.368 40.000,352.613 40.142,352.795 40.316 C 352.976 40.489,353.457 40.844,353.862 41.104 C 356.000 42.475,362.366 48.290,363.750 50.136 C 363.956 50.411,364.772 51.443,365.563 52.430 C 366.353 53.416,367.000 54.342,367.000 54.487 C 367.000 54.631,367.105 54.750,367.233 54.750 C 367.361 54.750,367.538 54.974,367.625 55.249 C 367.712 55.523,367.923 55.888,368.095 56.061 C 369.020 56.991,372.565 63.851,373.490 66.500 C 373.802 67.394,374.213 68.480,374.403 68.913 C 374.594 69.346,374.751 69.909,374.752 70.163 C 374.752 70.417,374.916 70.937,375.115 71.318 C 375.314 71.700,375.552 72.682,375.645 73.501 C 375.738 74.320,375.914 74.928,376.038 74.852 C 376.161 74.775,376.239 74.806,376.210 74.919 C 376.132 75.222,376.537 78.842,376.674 79.072 C 377.071 79.740,377.125 94.123,377.125 200.125 C 377.125 306.568,377.073 320.275,376.666 320.934 C 376.508 321.189,376.126 324.790,376.221 325.125 C 376.260 325.262,376.199 325.282,376.085 325.168 C 375.971 325.054,375.751 325.729,375.595 326.668 C 375.440 327.607,375.191 328.712,375.043 329.125 C 374.895 329.538,374.361 331.056,373.857 332.500 C 372.950 335.099,372.138 336.869,370.184 340.500 C 369.031 342.644,368.515 343.486,368.066 343.955 C 367.892 344.137,367.750 344.450,367.750 344.651 C 367.750 344.851,367.581 345.080,367.375 345.160 C 367.169 345.239,367.000 345.439,367.000 345.605 C 367.000 345.770,366.803 346.125,366.562 346.393 C 366.322 346.661,365.682 347.442,365.140 348.128 C 362.610 351.330,360.683 353.336,357.750 355.823 C 356.581 356.814,355.473 357.769,355.287 357.946 C 353.579 359.563,345.292 364.271,342.000 365.494 C 338.668 366.732,334.855 367.929,334.579 367.823 C 334.398 367.753,334.250 367.814,334.250 367.958 C 334.250 368.101,334.053 368.214,333.813 368.208 C 333.572 368.202,332.137 368.437,330.625 368.729 C 329.113 369.022,325.962 369.369,323.625 369.500 C 318.021 369.813,96.806 369.815,91.375 369.501 C 85.084 369.137,77.770 367.500,73.359 365.468 C 72.800 365.211,72.269 365.000,72.181 365.000 C 71.958 365.000,68.154 363.199,68.000 363.020 C 67.931 362.940,67.256 362.548,66.500 362.148 C 65.167 361.444,62.504 359.786,62.250 359.503 C 62.181 359.426,61.839 359.182,61.489 358.959 C 55.482 355.146,47.956 346.287,44.150 338.550 C 42.114 334.410,41.851 333.792,41.040 331.250 C 39.833 327.465,39.588 326.547,38.964 323.500 L 38.375 320.625 38.375 199.875 L 38.375 79.125 39.048 76.125 C 40.201 70.981,41.188 67.675,42.254 65.375 C 45.384 58.630,47.006 55.901,50.455 51.573 C 53.460 47.803,57.985 43.435,61.021 41.376 C 61.628 40.964,62.181 40.566,62.250 40.492 C 62.491 40.233,65.138 38.551,66.500 37.792 C 68.284 36.797,69.870 36.034,73.375 34.484 C 74.293 34.078,76.853 33.174,77.619 32.986 C 78.035 32.884,79.444 32.520,80.750 32.179 C 82.853 31.629,86.465 30.936,88.625 30.668 C 90.347 30.454,325.476 30.531,327.000 30.746 M95.000 196.500 L 95.000 215.750 97.375 215.750 L 99.750 215.750 99.758 209.938 C 99.772 199.346,100.494 197.501,104.625 197.501 C 108.572 197.501,108.851 198.180,108.959 208.071 L 109.044 215.768 111.459 215.696 L 113.875 215.625 113.952 208.750 C 114.061 198.928,113.571 196.531,111.061 194.615 C 108.285 192.495,102.839 192.579,100.854 194.773 C 99.776 195.964,99.750 195.764,99.750 186.250 L 99.750 177.250 97.375 177.250 L 95.000 177.250 95.000 196.500 M211.878 178.063 C 211.798 178.509,211.765 187.144,211.804 197.250 L 211.875 215.625 214.313 215.697 L 216.750 215.768 216.754 209.197 C 216.760 198.934,217.462 197.351,221.922 197.552 C 225.583 197.717,225.855 198.432,225.940 208.125 L 226.007 215.625 228.378 215.697 L 230.750 215.768 230.746 207.947 C 230.742 199.482,230.597 198.187,229.430 196.196 C 227.412 192.753,221.411 191.945,217.878 194.640 C 217.438 194.975,217.004 195.250,216.914 195.250 C 216.824 195.250,216.750 191.200,216.750 186.250 L 216.750 177.250 214.386 177.250 L 212.023 177.250 211.878 178.063 M130.774 181.316 C 127.870 182.809,128.948 187.308,132.221 187.356 C 135.375 187.403,136.636 183.143,133.953 181.506 C 133.019 180.937,131.669 180.856,130.774 181.316 M243.057 192.667 C 241.683 193.220,241.836 194.964,243.449 197.136 C 244.096 198.008,245.351 199.733,246.238 200.971 C 248.782 204.519,249.409 204.408,252.652 199.835 C 253.875 198.111,255.128 196.386,255.438 196.002 C 256.237 195.008,256.195 193.690,255.341 193.018 C 254.704 192.517,244.179 192.216,243.057 192.667 M158.985 193.237 C 157.947 193.552,157.177 194.011,156.313 194.829 C 155.866 195.252,155.486 195.492,155.468 195.362 C 155.451 195.231,155.412 194.900,155.381 194.625 C 155.351 194.350,155.308 193.979,155.288 193.800 C 155.259 193.555,154.663 193.486,152.875 193.519 L 150.500 193.564 150.500 204.666 L 150.500 215.768 152.933 215.697 L 155.367 215.625 155.291 209.875 C 155.150 199.198,156.650 196.307,161.393 198.119 C 162.019 198.358,162.567 198.513,162.611 198.464 C 163.220 197.793,164.678 194.253,164.429 194.050 C 163.407 193.223,160.476 192.785,158.985 193.237 M182.695 193.578 C 173.590 196.708,173.435 211.922,182.472 215.554 C 186.284 217.086,191.761 216.047,194.457 213.280 C 197.397 210.263,197.404 210.139,194.713 208.665 L 193.052 207.754 191.713 209.354 C 188.437 213.270,183.203 212.620,181.507 208.086 C 180.552 205.535,179.858 205.750,189.037 205.750 L 197.074 205.750 196.912 203.648 C 196.582 199.351,195.352 196.841,192.452 194.548 C 190.621 193.100,185.552 192.596,182.695 193.578 M306.250 193.219 C 299.460 194.707,296.053 203.584,299.548 210.684 C 303.051 217.802,313.590 218.238,318.494 211.468 C 319.527 210.043,319.506 209.995,317.337 208.761 L 315.425 207.673 314.902 208.399 C 311.034 213.773,304.139 212.705,303.459 206.625 L 303.375 205.875 311.375 205.750 L 319.375 205.625 319.453 204.812 C 320.156 197.528,313.450 191.640,306.250 193.219 M129.902 193.895 C 129.818 194.113,129.750 199.123,129.750 205.029 L 129.750 215.768 132.188 215.697 L 134.625 215.625 134.694 205.125 C 134.733 199.350,134.702 194.372,134.627 194.063 C 134.449 193.329,130.177 193.178,129.902 193.895 M264.500 193.618 C 264.500 193.683,265.444 195.680,266.598 198.055 C 270.256 205.587,273.162 211.620,274.388 214.225 C 275.041 215.614,275.651 216.750,275.744 216.750 C 275.837 216.750,276.628 215.259,277.503 213.438 C 278.379 211.616,280.804 206.625,282.894 202.347 C 284.984 198.069,286.771 194.329,286.864 194.035 C 287.030 193.511,286.978 193.500,284.328 193.500 L 281.622 193.500 278.775 199.750 C 277.209 203.188,275.880 206.000,275.821 206.000 C 275.719 206.000,274.604 203.671,271.362 196.688 L 269.882 193.500 267.191 193.500 C 265.711 193.500,264.500 193.553,264.500 193.618 M189.188 198.030 C 190.319 198.578,191.340 199.842,191.637 201.063 L 191.804 201.750 186.652 201.750 C 180.882 201.750,180.952 201.776,182.033 200.004 C 183.436 197.703,186.668 196.811,189.188 198.030 M311.375 197.973 C 312.860 198.658,314.632 201.035,314.073 201.593 C 313.987 201.679,311.622 201.750,308.816 201.750 L 303.716 201.750 303.890 201.188 C 304.816 198.188,308.455 196.625,311.375 197.973 M247.500 204.684 C 246.618 205.023,245.556 206.065,245.041 207.097 L 244.486 208.207 244.557 225.166 L 244.627 242.125 245.216 243.125 C 245.540 243.675,246.219 244.904,246.724 245.855 C 248.462 249.124,249.579 249.246,251.070 246.330 C 251.550 245.392,252.236 244.074,252.596 243.400 L 253.250 242.176 253.250 224.750 L 253.250 207.324 252.682 206.480 C 251.550 204.801,249.261 204.007,247.500 204.684 " stroke="none" fill="#f5f5f5" fill-rule="evenodd"></path><path id="path1" d="M90.750 30.930 C 88.596 31.067,82.645 31.957,81.846 32.262 C 81.449 32.413,80.675 32.633,80.125 32.750 C 78.281 33.142,76.127 33.788,75.888 34.020 C 75.757 34.147,75.495 34.250,75.306 34.250 C 74.467 34.250,68.431 37.031,65.860 38.602 C 65.165 39.027,64.411 39.487,64.186 39.625 C 62.838 40.447,59.416 43.032,57.400 44.750 C 56.071 45.883,53.200 48.845,51.705 50.625 C 50.897 51.587,50.091 52.544,49.916 52.750 C 49.382 53.376,47.250 56.455,47.250 56.600 C 47.250 56.674,46.766 57.497,46.174 58.430 C 43.570 62.532,40.666 69.941,39.729 74.875 C 39.599 75.563,39.297 77.081,39.058 78.250 C 38.399 81.483,38.385 318.477,39.044 321.625 C 39.274 322.725,39.536 324.131,39.626 324.750 C 39.812 326.026,39.859 326.197,41.236 330.561 C 42.871 335.743,47.241 344.156,49.906 347.250 C 50.579 348.031,51.939 349.648,52.398 350.211 C 53.810 351.944,58.381 356.183,60.510 357.733 C 61.261 358.280,62.325 359.054,62.875 359.455 C 66.272 361.927,72.033 364.722,76.875 366.249 C 81.789 367.799,82.584 367.997,86.182 368.574 L 89.625 369.125 207.250 369.125 C 336.495 369.125,328.046 369.219,333.375 367.723 C 334.337 367.453,335.575 367.108,336.125 366.957 C 349.429 363.303,362.087 353.635,368.858 341.958 C 372.778 335.196,376.250 325.072,376.250 320.401 C 376.250 319.835,376.363 318.979,376.501 318.498 C 376.668 317.919,376.753 278.081,376.753 200.000 C 376.753 121.919,376.668 82.081,376.501 81.502 C 376.363 81.021,376.250 80.148,376.250 79.560 C 376.250 78.563,375.274 73.558,374.751 71.875 C 374.623 71.463,374.243 70.225,373.906 69.125 C 373.020 66.235,370.028 59.610,368.940 58.127 C 368.838 57.989,368.269 57.144,367.676 56.250 C 366.041 53.786,365.092 52.452,364.385 51.625 C 364.032 51.212,363.268 50.313,362.688 49.625 C 359.179 45.472,352.334 40.090,347.125 37.389 C 346.163 36.890,345.206 36.382,345.000 36.259 C 344.687 36.073,344.129 35.838,343.500 35.626 C 343.431 35.603,342.813 35.327,342.125 35.012 C 341.438 34.698,340.538 34.349,340.125 34.237 C 339.712 34.126,338.869 33.848,338.250 33.620 C 335.182 32.489,330.558 31.560,325.250 31.007 C 323.293 30.803,93.928 30.728,90.750 30.930 M100.105 176.968 C 100.179 177.088,100.247 181.082,100.256 185.844 L 100.273 194.502 101.892 193.644 C 106.689 191.097,112.302 193.137,113.735 197.948 C 114.279 199.776,114.538 214.909,114.038 215.697 C 113.888 215.933,113.145 215.999,111.230 215.947 L 108.625 215.875 108.496 208.125 C 108.414 203.187,108.264 200.148,108.085 199.750 C 106.964 197.264,102.411 197.160,101.188 199.592 C 100.476 201.009,100.421 201.559,100.272 208.750 L 100.125 215.875 97.375 215.875 L 94.625 215.875 94.500 196.550 C 94.422 184.501,94.464 177.135,94.612 176.987 C 94.910 176.690,99.922 176.672,100.105 176.968 M217.250 185.691 L 217.375 194.506 218.257 193.907 C 221.517 191.691,226.946 192.326,229.192 195.184 C 231.047 197.545,231.246 198.785,231.248 208.042 C 231.250 216.853,231.573 216.000,228.242 216.000 L 225.538 216.000 225.456 208.188 C 225.359 198.799,225.237 198.382,222.462 197.896 C 218.230 197.156,217.250 199.188,217.250 208.706 C 217.250 216.759,217.562 216.000,214.252 216.000 L 211.557 216.000 211.427 215.188 C 211.247 214.058,211.237 177.978,211.417 177.291 C 211.558 176.752,211.650 176.736,214.344 176.805 L 217.125 176.875 217.250 185.691 M134.496 181.472 C 137.609 183.979,134.849 188.878,131.051 187.588 C 129.930 187.208,128.841 185.983,128.687 184.931 C 128.184 181.506,131.837 179.332,134.496 181.472 M255.517 192.317 C 256.426 192.929,256.909 194.084,256.663 195.061 C 256.501 195.708,251.450 202.931,250.807 203.435 C 250.353 203.791,250.360 203.802,251.411 204.336 C 251.843 204.555,252.574 205.212,253.036 205.795 L 253.875 206.855 253.942 224.447 L 254.010 242.040 253.327 243.583 C 252.952 244.431,252.575 245.181,252.489 245.250 C 252.403 245.319,251.953 246.094,251.488 246.972 C 249.480 250.769,247.780 249.857,244.552 243.250 C 243.933 241.982,243.764 208.376,244.370 206.927 C 244.919 205.612,246.153 204.311,247.035 204.117 L 247.799 203.949 247.064 203.162 C 246.405 202.456,242.787 197.499,241.696 195.808 C 241.441 195.413,241.321 194.886,241.399 194.509 C 241.472 194.160,241.580 193.633,241.639 193.338 C 241.977 191.653,253.297 190.821,255.517 192.317 M163.500 193.169 C 165.264 193.754,165.311 194.092,163.999 196.722 C 162.849 199.027,162.604 199.213,161.471 198.648 C 159.468 197.649,157.430 198.381,156.435 200.456 C 155.902 201.568,155.872 201.958,155.816 208.498 C 155.744 216.902,156.094 216.032,152.817 215.946 L 150.125 215.875 150.000 204.768 C 149.899 195.804,149.938 193.597,150.203 193.332 C 150.829 192.706,155.320 193.001,155.622 193.688 C 155.880 194.277,156.362 194.426,156.626 193.998 C 157.465 192.641,160.724 192.248,163.500 193.169 M190.323 193.110 C 194.292 194.343,196.576 197.613,197.270 203.057 C 197.684 206.306,198.352 206.047,189.575 206.041 C 181.487 206.035,181.349 206.056,181.581 207.217 C 182.068 209.651,184.464 211.509,187.100 211.495 C 189.022 211.484,190.184 210.682,192.420 207.822 C 192.883 207.231,193.035 207.170,193.420 207.425 C 193.670 207.590,194.587 208.091,195.457 208.540 C 197.562 209.625,197.669 209.881,196.646 211.397 C 190.711 220.188,177.843 217.870,175.699 207.625 C 173.648 197.827,181.242 190.290,190.323 193.110 M312.790 193.176 C 317.077 194.635,319.585 198.511,319.727 203.900 C 319.789 206.224,320.423 206.058,311.627 206.017 C 303.182 205.978,303.530 205.894,304.245 207.804 C 305.905 212.240,310.308 212.766,313.850 208.953 L 315.481 207.197 316.303 207.689 C 316.755 207.960,317.716 208.496,318.438 208.880 C 319.964 209.694,320.012 209.923,318.986 211.521 C 314.263 218.882,302.832 218.362,299.094 210.617 C 294.196 200.467,302.636 189.719,312.790 193.176 M134.698 193.218 C 134.929 193.361,135.201 212.132,135.023 215.563 C 135.003 215.951,134.695 216.000,132.283 216.000 L 129.565 216.000 129.410 215.063 C 129.139 213.419,129.227 194.011,129.508 193.485 C 129.775 192.987,133.974 192.771,134.698 193.218 M270.814 194.500 C 271.558 195.986,273.395 199.959,274.769 203.054 C 275.807 205.392,275.698 205.377,276.669 203.312 C 278.350 199.738,279.750 196.689,279.750 196.604 C 279.750 196.235,281.152 193.567,281.473 193.327 C 282.018 192.918,286.604 192.963,287.179 193.383 C 287.568 193.668,287.462 193.983,285.958 197.035 C 284.277 200.448,282.717 203.671,278.897 211.625 C 276.065 217.521,276.172 217.319,275.817 217.437 C 275.581 217.515,270.500 207.678,270.500 207.144 C 270.500 207.038,264.580 194.790,264.226 194.163 C 264.083 193.909,264.005 193.661,264.054 193.612 C 264.448 193.219,265.738 193.031,267.750 193.074 L 270.125 193.125 270.814 194.500 M185.061 198.057 C 183.859 198.356,181.911 200.227,182.050 200.949 C 182.144 201.436,191.250 201.697,191.250 201.213 C 191.250 199.136,187.798 197.375,185.061 198.057 M307.711 197.994 C 306.213 198.446,303.976 200.605,304.361 201.227 C 304.491 201.437,312.620 201.575,313.242 201.378 C 313.742 201.219,313.742 201.215,313.254 200.258 C 312.286 198.360,309.825 197.355,307.711 197.994 " stroke="none" fill="#1c83f3" fill-rule="evenodd"></path><path id="path2" d="M87.875 30.773 C 85.466 31.112,82.579 31.694,83.155 31.723 C 83.446 31.738,84.684 31.553,85.905 31.313 C 88.206 30.859,322.581 30.599,327.500 31.045 C 329.073 31.187,329.254 31.168,328.625 30.922 C 327.726 30.572,90.346 30.424,87.875 30.773 M329.813 31.422 C 330.053 31.485,330.447 31.485,330.688 31.422 C 330.928 31.359,330.731 31.308,330.250 31.308 C 329.769 31.308,329.572 31.359,329.813 31.422 M78.375 32.733 C 78.100 32.843,77.063 33.195,76.071 33.517 C 75.079 33.838,74.315 34.148,74.373 34.207 C 74.431 34.265,75.243 34.058,76.177 33.747 C 78.714 32.903,79.668 32.525,79.250 32.530 C 79.044 32.532,78.650 32.623,78.375 32.733 M336.466 32.885 C 336.929 33.086,337.491 33.254,337.716 33.258 C 337.941 33.263,338.575 33.484,339.125 33.750 C 339.675 34.016,340.350 34.228,340.625 34.222 C 340.977 34.214,341.014 34.170,340.750 34.075 C 340.544 34.000,340.038 33.793,339.625 33.614 C 338.810 33.261,336.179 32.494,335.837 32.510 C 335.720 32.515,336.004 32.684,336.466 32.885 M344.125 35.738 C 345.225 36.292,346.234 36.710,346.368 36.667 C 346.635 36.580,343.743 35.166,342.750 34.898 C 342.406 34.806,343.025 35.184,344.125 35.738 M69.159 36.361 C 68.490 36.689,67.815 37.102,67.659 37.279 C 67.434 37.534,67.453 37.545,67.750 37.331 C 67.956 37.183,68.399 36.977,68.733 36.874 C 69.452 36.653,70.986 35.749,70.625 35.759 C 70.487 35.763,69.828 36.034,69.159 36.361 M346.750 36.847 C 346.750 36.926,347.228 37.230,347.813 37.524 C 348.397 37.818,349.044 38.202,349.250 38.379 C 349.853 38.894,351.500 39.758,351.498 39.558 C 351.497 39.370,351.007 39.064,348.313 37.570 C 347.453 37.094,346.750 36.768,346.750 36.847 M65.250 38.532 C 64.356 39.090,63.316 39.733,62.939 39.961 C 62.562 40.189,62.252 40.462,62.252 40.568 C 62.250 40.741,63.433 40.095,63.750 39.751 C 63.819 39.676,64.156 39.477,64.500 39.309 C 65.246 38.944,66.077 38.432,66.250 38.229 C 66.319 38.148,66.600 37.955,66.875 37.799 C 67.150 37.643,67.263 37.516,67.125 37.516 C 66.987 37.517,66.144 37.974,65.250 38.532 M351.875 39.937 C 352.012 40.073,353.014 40.835,354.100 41.630 C 355.187 42.425,356.266 43.255,356.500 43.475 C 356.733 43.695,357.485 44.350,358.169 44.930 C 359.684 46.214,362.769 49.342,363.553 50.390 C 363.867 50.810,364.388 51.429,364.710 51.765 C 365.031 52.100,365.677 52.938,366.145 53.625 C 366.613 54.313,367.225 55.156,367.505 55.500 L 368.014 56.125 367.717 55.438 C 367.553 55.059,367.325 54.750,367.210 54.750 C 367.094 54.750,367.000 54.631,367.000 54.487 C 367.000 54.342,366.353 53.416,365.563 52.430 C 364.772 51.443,363.956 50.411,363.750 50.136 C 362.363 48.285,355.982 42.458,353.862 41.107 C 353.457 40.848,353.069 40.566,353.000 40.481 C 352.931 40.395,352.594 40.182,352.250 40.007 C 351.906 39.832,351.738 39.800,351.875 39.937 M60.225 41.963 C 59.345 42.630,58.063 43.709,57.375 44.360 C 56.688 45.012,56.407 45.338,56.751 45.085 C 57.674 44.406,58.520 43.682,58.966 43.188 C 59.183 42.947,59.467 42.750,59.597 42.750 C 59.727 42.750,60.011 42.578,60.229 42.367 C 60.447 42.157,60.962 41.707,61.375 41.367 C 62.687 40.289,61.886 40.703,60.225 41.963 M54.617 46.867 C 54.140 47.343,53.750 47.815,53.750 47.914 C 53.750 48.013,53.977 47.850,54.255 47.552 C 54.533 47.254,55.004 46.783,55.302 46.505 C 55.600 46.227,55.763 46.000,55.664 46.000 C 55.565 46.000,55.093 46.390,54.617 46.867 M52.968 48.480 C 52.779 48.744,52.136 49.532,51.538 50.232 C 50.940 50.931,50.631 51.434,50.850 51.350 C 51.070 51.266,51.250 51.123,51.250 51.033 C 51.250 50.943,51.648 50.421,52.134 49.872 C 53.008 48.885,53.614 48.000,53.414 48.000 C 53.357 48.000,53.157 48.216,52.968 48.480 M49.208 53.172 C 47.584 55.326,45.381 58.750,45.619 58.750 C 45.727 58.750,46.571 57.523,47.370 56.204 C 48.116 54.971,49.602 52.924,50.062 52.496 C 50.352 52.226,50.524 51.941,50.446 51.862 C 50.367 51.784,49.810 52.373,49.208 53.172 M368.915 57.813 C 369.386 58.672,370.097 59.938,370.494 60.625 C 370.892 61.313,371.224 62.072,371.233 62.313 C 371.243 62.553,371.354 62.750,371.480 62.750 C 371.607 62.750,371.784 63.087,371.875 63.500 C 371.966 63.913,372.131 64.250,372.243 64.250 C 372.354 64.250,372.522 64.555,372.616 64.929 C 372.710 65.302,373.003 66.084,373.268 66.665 C 373.533 67.247,373.750 67.899,373.750 68.115 C 373.750 68.330,373.857 68.702,373.989 68.941 C 374.198 69.322,374.591 70.583,375.489 73.750 C 375.706 74.514,375.719 74.456,375.592 73.290 C 375.512 72.556,375.291 71.656,375.100 71.290 C 374.909 70.924,374.752 70.417,374.752 70.163 C 374.751 69.909,374.594 69.346,374.403 68.913 C 374.213 68.480,373.801 67.394,373.487 66.500 C 372.569 63.881,368.649 56.250,368.221 56.250 C 368.131 56.250,368.443 56.953,368.915 57.813 M44.650 60.275 C 44.403 60.693,44.257 61.090,44.325 61.158 C 44.392 61.226,44.629 60.918,44.850 60.475 C 45.371 59.431,45.231 59.291,44.650 60.275 M42.180 65.554 C 41.654 66.674,40.199 71.033,40.313 71.147 C 40.364 71.197,40.605 70.651,40.850 69.932 C 41.639 67.615,42.284 65.886,42.537 65.413 C 42.673 65.159,42.735 64.902,42.675 64.842 C 42.615 64.781,42.392 65.102,42.180 65.554 M39.640 73.283 C 38.920 76.466,38.497 79.350,38.398 81.750 L 38.279 84.625 38.517 81.750 C 38.648 80.169,38.867 78.617,39.003 78.301 C 39.139 77.985,39.252 77.422,39.254 77.051 C 39.257 76.679,39.424 75.595,39.626 74.642 C 39.828 73.689,39.944 72.860,39.884 72.800 C 39.823 72.740,39.714 72.957,39.640 73.283 M375.858 75.079 C 375.789 75.260,375.844 75.682,375.981 76.016 C 376.207 76.567,376.227 76.535,376.189 75.688 C 376.145 74.694,376.063 74.544,375.858 75.079 M376.406 78.625 C 376.458 79.450,376.610 81.250,376.744 82.625 C 377.206 87.374,377.075 313.913,376.607 318.605 C 376.391 320.774,376.279 322.612,376.357 322.691 C 376.436 322.769,376.500 322.440,376.500 321.958 C 376.500 321.477,376.564 321.019,376.643 320.940 C 377.074 320.510,377.125 307.640,377.125 200.125 C 377.125 92.926,377.075 80.163,376.655 79.000 C 376.580 78.794,376.473 78.287,376.416 77.875 C 376.358 77.463,376.354 77.800,376.406 78.625 M94.869 177.303 C 94.801 177.480,94.776 186.231,94.812 196.750 L 94.878 215.875 94.939 196.563 L 95.000 177.250 97.372 177.250 L 99.744 177.250 99.814 186.188 L 99.884 195.125 99.880 186.125 L 99.875 177.125 97.433 177.053 C 95.620 177.000,94.960 177.065,94.869 177.303 M211.779 177.554 C 211.800 177.977,211.838 178.012,211.922 177.688 C 212.021 177.310,212.359 177.250,214.393 177.250 L 216.750 177.250 216.750 186.250 C 216.750 194.656,216.840 195.866,217.399 194.961 C 217.509 194.784,217.468 194.741,217.292 194.849 C 217.080 194.980,216.989 192.705,216.941 186.075 L 216.875 177.125 214.313 177.054 C 211.782 176.983,211.750 176.990,211.779 177.554 M129.384 182.326 C 128.416 183.803,128.714 185.695,130.077 186.733 L 130.875 187.340 130.043 186.450 C 128.975 185.309,128.772 184.002,129.457 182.688 C 130.003 181.641,129.963 181.443,129.384 182.326 M134.359 186.563 L 133.625 187.375 134.438 186.641 C 135.195 185.956,135.365 185.750,135.172 185.750 C 135.129 185.750,134.763 186.116,134.359 186.563 M131.375 187.500 C 131.650 187.618,132.100 187.712,132.375 187.708 C 132.777 187.702,132.752 187.661,132.250 187.500 C 131.395 187.226,130.738 187.226,131.375 187.500 M246.188 192.437 C 247.734 192.480,250.266 192.480,251.813 192.437 C 253.359 192.393,252.094 192.357,249.000 192.357 C 245.906 192.357,244.641 192.393,246.188 192.437 M105.442 192.931 C 105.891 192.987,106.566 192.986,106.942 192.929 C 107.318 192.872,106.950 192.826,106.125 192.827 C 105.300 192.829,104.993 192.876,105.442 192.931 M158.656 193.117 C 158.123 193.307,157.561 193.596,157.406 193.760 C 157.252 193.923,157.500 193.868,157.959 193.636 C 158.418 193.404,159.486 193.125,160.334 193.014 C 161.754 192.829,161.786 192.812,160.750 192.793 C 160.131 192.781,159.189 192.927,158.656 193.117 M183.500 193.148 C 183.019 193.345,182.906 193.436,183.250 193.350 C 183.594 193.264,184.887 193.111,186.125 193.012 L 188.375 192.831 186.375 192.809 C 185.160 192.796,184.032 192.929,183.500 193.148 M221.875 192.874 C 222.443 193.067,225.592 193.176,225.125 192.987 C 224.850 192.876,223.950 192.786,223.125 192.787 C 222.300 192.788,221.738 192.828,221.875 192.874 M306.250 193.000 L 305.625 193.200 306.313 193.225 C 306.691 193.239,307.000 193.137,307.000 193.000 C 307.000 192.863,306.972 192.761,306.938 192.775 C 306.903 192.789,306.594 192.890,306.250 193.000 M307.932 192.930 C 308.376 192.986,309.163 192.987,309.682 192.932 C 310.201 192.878,309.837 192.833,308.875 192.832 C 307.913 192.831,307.488 192.875,307.932 192.930 M310.892 193.027 C 310.967 193.150,311.239 193.250,311.494 193.250 C 311.750 193.250,312.474 193.471,313.104 193.741 C 313.734 194.011,314.250 194.174,314.250 194.103 C 314.250 193.925,312.545 193.219,311.564 192.991 C 311.100 192.884,310.813 192.899,310.892 193.027 M103.250 193.261 C 102.976 193.447,103.077 193.470,103.625 193.347 C 104.544 193.142,104.744 192.999,104.104 193.004 C 103.841 193.006,103.456 193.122,103.250 193.261 M219.625 193.486 C 218.331 194.099,218.535 194.103,220.250 193.500 C 221.006 193.234,221.400 193.016,221.125 193.015 C 220.850 193.014,220.175 193.226,219.625 193.486 M109.000 193.429 C 109.206 193.505,109.600 193.671,109.875 193.798 C 110.367 194.024,110.367 194.021,109.890 193.639 C 109.623 193.425,109.229 193.259,109.015 193.270 C 108.678 193.287,108.676 193.308,109.000 193.429 M129.627 194.063 C 129.547 194.509,129.515 199.600,129.556 205.375 L 129.631 215.875 129.690 205.083 C 129.723 199.147,129.818 194.113,129.902 193.895 C 130.099 193.382,134.380 193.306,134.584 193.813 C 134.660 193.999,134.718 193.949,134.730 193.688 C 134.748 193.299,134.472 193.250,132.261 193.250 L 129.773 193.250 129.627 194.063 M150.309 204.563 L 150.367 215.875 150.496 204.725 L 150.625 193.574 152.850 193.521 C 154.465 193.482,155.132 193.558,155.284 193.796 C 155.441 194.044,155.493 194.018,155.496 193.688 C 155.500 193.298,155.210 193.250,152.875 193.250 L 150.250 193.250 150.309 204.563 M264.418 193.429 C 264.351 193.537,265.540 193.590,267.061 193.546 C 269.134 193.487,269.883 193.550,270.057 193.796 C 270.238 194.054,270.266 194.044,270.186 193.750 C 270.075 193.340,264.661 193.039,264.418 193.429 M281.131 193.988 C 280.922 194.393,280.756 194.871,280.763 195.050 C 280.770 195.229,280.951 194.953,281.165 194.438 L 281.553 193.500 284.294 193.500 C 287.015 193.500,287.033 193.504,286.875 194.063 C 286.752 194.503,286.774 194.544,286.980 194.250 C 287.606 193.355,287.332 193.250,284.381 193.250 L 281.513 193.250 281.131 193.988 M164.423 194.021 C 164.654 194.254,164.555 194.651,163.982 195.786 C 163.575 196.591,163.299 197.250,163.368 197.250 C 163.486 197.250,165.000 194.383,165.000 194.159 C 165.000 194.101,164.803 193.979,164.563 193.887 C 164.223 193.758,164.192 193.788,164.423 194.021 M301.250 195.875 C 300.643 196.494,300.202 197.000,300.271 197.000 C 300.340 197.000,300.893 196.494,301.500 195.875 C 302.107 195.256,302.548 194.750,302.479 194.750 C 302.410 194.750,301.857 195.256,301.250 195.875 M316.113 195.718 C 316.657 196.285,317.137 196.750,317.182 196.750 C 317.441 196.750,316.355 195.465,315.795 195.110 C 315.282 194.784,315.356 194.926,316.113 195.718 M178.859 195.813 L 178.125 196.625 178.938 195.891 C 179.384 195.487,179.750 195.121,179.750 195.078 C 179.750 194.885,179.544 195.055,178.859 195.813 M270.768 195.375 C 270.768 195.512,270.928 195.906,271.125 196.250 C 271.322 196.594,271.482 196.762,271.482 196.625 C 271.482 196.488,271.322 196.094,271.125 195.750 C 270.928 195.406,270.768 195.238,270.768 195.375 M265.268 195.625 C 265.268 195.762,265.428 196.156,265.625 196.500 C 265.822 196.844,265.982 197.012,265.982 196.875 C 265.982 196.738,265.822 196.344,265.625 196.000 C 265.428 195.656,265.268 195.488,265.268 195.625 M195.520 198.032 C 195.695 198.358,196.038 199.244,196.281 200.000 C 196.524 200.756,196.729 201.182,196.737 200.947 C 196.755 200.358,195.777 197.796,195.459 197.600 C 195.317 197.512,195.344 197.706,195.520 198.032 M101.689 198.313 C 101.365 198.622,101.275 198.750,101.488 198.597 C 101.701 198.445,102.100 198.195,102.375 198.043 C 102.650 197.890,102.741 197.762,102.576 197.758 C 102.412 197.753,102.013 198.003,101.689 198.313 M159.066 197.929 C 159.446 197.987,160.008 197.985,160.316 197.926 C 160.623 197.867,160.313 197.820,159.625 197.822 C 158.938 197.823,158.686 197.872,159.066 197.929 M176.866 198.517 C 176.648 198.939,176.505 199.384,176.547 199.505 C 176.590 199.627,176.814 199.282,177.044 198.738 C 177.541 197.566,177.429 197.428,176.866 198.517 M223.750 197.828 C 223.750 197.871,224.116 198.237,224.563 198.641 L 225.375 199.375 224.641 198.563 C 223.956 197.805,223.750 197.635,223.750 197.828 M230.414 198.625 C 230.498 199.175,230.608 199.672,230.658 199.729 C 230.848 199.944,230.706 198.605,230.488 198.125 C 230.330 197.777,230.308 197.928,230.414 198.625 M305.788 198.502 C 305.217 198.915,304.750 199.326,304.750 199.415 C 304.750 199.505,304.947 199.404,305.188 199.191 C 305.428 198.978,306.019 198.568,306.500 198.278 C 306.981 197.989,307.251 197.751,307.100 197.751 C 306.949 197.750,306.358 198.088,305.788 198.502 M107.653 198.488 C 107.805 198.701,108.055 199.100,108.207 199.375 C 108.360 199.650,108.488 199.741,108.492 199.576 C 108.497 199.412,108.247 199.013,107.938 198.689 C 107.628 198.365,107.500 198.275,107.653 198.488 M157.189 198.563 C 156.865 198.872,156.775 199.000,156.988 198.847 C 157.201 198.695,157.600 198.445,157.875 198.293 C 158.150 198.140,158.241 198.012,158.076 198.008 C 157.912 198.003,157.513 198.253,157.189 198.563 M161.500 198.375 C 161.844 198.572,162.294 198.732,162.500 198.731 C 162.706 198.731,162.496 198.566,162.034 198.365 C 160.969 197.903,160.684 197.908,161.500 198.375 M182.937 198.883 C 182.216 199.551,181.380 200.963,181.584 201.167 C 181.650 201.233,181.782 201.042,181.878 200.741 C 181.973 200.441,182.447 199.757,182.930 199.222 C 183.934 198.110,183.938 197.955,182.937 198.883 M218.196 198.688 C 217.685 199.273,217.248 200.142,217.260 200.546 C 217.265 200.727,217.439 200.485,217.646 200.007 C 217.853 199.530,218.203 198.940,218.425 198.695 C 218.646 198.450,218.771 198.250,218.702 198.250 C 218.634 198.250,218.406 198.447,218.196 198.688 M312.675 199.046 C 313.104 199.553,313.532 200.208,313.626 200.502 C 313.719 200.797,313.850 200.983,313.916 200.917 C 314.124 200.709,313.328 199.402,312.595 198.750 C 311.937 198.164,311.942 198.182,312.675 199.046 M190.697 199.599 C 191.070 200.203,191.420 200.655,191.474 200.604 C 191.584 200.500,190.308 198.500,190.131 198.500 C 190.070 198.500,190.324 198.994,190.697 199.599 M267.018 199.125 C 267.018 199.262,267.178 199.656,267.375 200.000 C 267.572 200.344,267.732 200.512,267.732 200.375 C 267.732 200.238,267.572 199.844,267.375 199.500 C 267.178 199.156,267.018 198.988,267.018 199.125 M155.986 200.163 C 155.847 200.527,155.770 200.936,155.815 201.070 C 155.860 201.204,156.022 200.906,156.175 200.407 C 156.496 199.359,156.359 199.181,155.986 200.163 M272.771 199.625 C 272.771 199.762,272.987 200.269,273.250 200.750 C 273.513 201.231,273.729 201.512,273.729 201.375 C 273.729 201.238,273.513 200.731,273.250 200.250 C 272.987 199.769,272.771 199.488,272.771 199.625 M100.238 200.664 C 100.044 201.289,99.917 204.113,99.874 208.750 L 99.809 215.875 100.002 208.750 C 100.109 204.831,100.318 201.239,100.469 200.767 C 100.619 200.294,100.695 199.862,100.639 199.806 C 100.583 199.749,100.402 200.136,100.238 200.664 M278.237 200.410 C 278.099 200.772,278.032 201.116,278.089 201.172 C 278.146 201.229,278.312 200.932,278.458 200.513 C 278.783 199.580,278.587 199.489,278.237 200.410 M283.670 200.637 C 283.083 201.868,283.165 202.078,283.779 200.914 C 284.058 200.385,284.242 199.909,284.188 199.855 C 284.134 199.800,283.901 200.152,283.670 200.637 M225.470 200.805 C 225.585 201.499,225.621 201.534,225.699 201.034 C 225.750 200.708,225.689 200.339,225.563 200.213 C 225.425 200.075,225.388 200.308,225.470 200.805 M230.861 208.000 C 230.861 212.331,230.895 214.103,230.937 211.938 C 230.979 209.772,230.979 206.228,230.937 204.063 C 230.895 201.897,230.861 203.669,230.861 208.000 M191.500 201.245 C 191.500 201.394,189.525 201.518,186.438 201.563 L 181.375 201.636 186.563 201.693 C 191.032 201.742,191.750 201.698,191.750 201.375 C 191.750 201.169,191.694 201.000,191.625 201.000 C 191.556 201.000,191.500 201.110,191.500 201.245 M216.912 201.930 C 216.826 202.450,216.777 205.800,216.803 209.375 L 216.851 215.875 216.988 208.500 C 217.063 204.444,217.112 201.093,217.096 201.055 C 217.081 201.016,216.998 201.410,216.912 201.930 M303.750 201.563 C 303.750 201.666,306.050 201.750,308.860 201.750 C 311.671 201.750,314.023 201.666,314.086 201.563 C 314.150 201.459,311.850 201.375,308.976 201.375 C 306.102 201.375,303.750 201.459,303.750 201.563 M155.558 202.250 C 155.558 202.731,155.609 202.928,155.672 202.688 C 155.735 202.447,155.735 202.053,155.672 201.813 C 155.609 201.572,155.558 201.769,155.558 202.250 M108.860 208.750 C 108.860 212.669,108.895 214.272,108.937 212.313 C 108.979 210.353,108.979 207.147,108.937 205.188 C 108.895 203.228,108.860 204.831,108.860 208.750 M225.860 208.500 C 225.860 212.281,225.894 213.828,225.937 211.938 C 225.979 210.047,225.979 206.953,225.937 205.063 C 225.894 203.172,225.860 204.719,225.860 208.500 M298.082 204.625 C 298.083 205.588,298.128 205.951,298.182 205.432 C 298.237 204.913,298.236 204.126,298.180 203.682 C 298.125 203.238,298.081 203.662,298.082 204.625 M155.354 207.875 C 155.354 210.488,155.391 211.522,155.437 210.175 C 155.482 208.827,155.481 206.689,155.436 205.425 C 155.391 204.160,155.354 205.262,155.354 207.875 M319.375 205.500 C 319.277 205.658,316.336 205.750,311.375 205.750 C 307.060 205.750,303.477 205.834,303.413 205.938 C 303.350 206.041,306.932 206.094,311.375 206.056 C 318.215 205.997,319.473 205.930,319.593 205.618 C 319.753 205.201,319.609 205.122,319.375 205.500 M189.000 205.750 L 180.875 205.885 188.923 205.943 C 194.081 205.979,197.026 205.910,197.125 205.750 C 197.210 205.613,197.245 205.526,197.202 205.557 C 197.160 205.589,193.469 205.676,189.000 205.750 M192.525 208.063 C 192.188 208.610,192.192 208.613,192.672 208.187 C 192.944 207.946,193.259 207.834,193.373 207.937 C 193.487 208.040,193.499 207.984,193.400 207.813 C 193.141 207.361,192.916 207.425,192.525 208.063 M253.337 210.000 C 253.337 211.169,253.380 211.647,253.433 211.063 C 253.486 210.478,253.486 209.522,253.433 208.938 C 253.380 208.353,253.337 208.831,253.337 210.000 M194.324 208.391 C 194.434 208.510,195.053 208.899,195.699 209.256 C 196.346 209.613,196.844 210.048,196.806 210.221 C 196.769 210.395,196.853 210.466,196.994 210.379 C 197.486 210.075,197.239 209.814,195.688 208.997 C 194.828 208.545,194.215 208.272,194.324 208.391 M313.481 209.908 C 313.148 210.270,312.538 210.776,312.125 211.032 C 311.712 211.289,311.522 211.499,311.702 211.499 C 312.014 211.500,314.530 209.268,314.231 209.256 C 314.152 209.253,313.814 209.546,313.481 209.908 M318.844 209.599 C 319.121 209.822,319.250 210.139,319.159 210.376 C 319.070 210.608,319.110 210.712,319.253 210.623 C 319.683 210.357,319.521 209.778,318.938 209.495 C 318.408 209.238,318.402 209.244,318.844 209.599 M272.771 211.125 C 272.771 211.262,272.987 211.769,273.250 212.250 C 273.513 212.731,273.729 213.012,273.729 212.875 C 273.729 212.738,273.513 212.231,273.250 211.750 C 272.987 211.269,272.771 210.988,272.771 211.125 M188.250 211.500 C 187.385 211.682,187.383 211.685,188.125 211.713 C 188.537 211.729,189.044 211.633,189.250 211.500 C 189.666 211.231,189.528 211.231,188.250 211.500 M307.000 211.497 C 307.206 211.632,307.647 211.744,307.979 211.746 C 308.782 211.751,308.578 211.609,307.500 211.411 C 306.884 211.298,306.736 211.324,307.000 211.497 M185.625 211.750 C 186.683 212.019,187.590 212.019,186.750 211.750 C 186.406 211.640,185.844 211.552,185.500 211.554 C 184.939 211.559,184.951 211.579,185.625 211.750 M195.360 212.266 C 194.956 212.687,194.794 212.964,195.000 212.880 C 195.336 212.744,196.403 211.500,196.183 211.500 C 196.134 211.500,195.763 211.845,195.360 212.266 M309.250 211.762 C 308.829 211.906,309.032 211.928,309.875 211.830 C 310.563 211.751,311.172 211.644,311.229 211.593 C 311.426 211.417,309.875 211.550,309.250 211.762 M300.877 212.970 C 301.737 213.940,303.445 215.250,303.850 215.249 C 304.001 215.249,303.731 215.013,303.250 214.725 C 302.769 214.437,301.870 213.735,301.252 213.163 C 300.375 212.352,300.293 212.309,300.877 212.970 M316.487 213.688 L 315.625 214.625 316.563 213.763 C 317.435 212.962,317.615 212.750,317.424 212.750 C 317.382 212.750,316.960 213.172,316.487 213.688 M178.500 213.083 C 178.500 213.152,178.950 213.564,179.500 214.000 C 180.050 214.436,180.500 214.736,180.500 214.667 C 180.500 214.598,180.050 214.186,179.500 213.750 C 178.950 213.314,178.500 213.014,178.500 213.083 M192.757 214.637 C 192.280 214.974,191.998 215.249,192.132 215.249 C 192.266 215.248,192.713 214.971,193.125 214.633 C 194.088 213.843,193.878 213.846,192.757 214.637 M314.688 214.893 C 313.753 215.400,313.810 215.611,314.750 215.125 C 315.163 214.912,315.500 214.684,315.500 214.619 C 315.500 214.458,315.473 214.467,314.688 214.893 M185.938 216.431 C 186.384 216.486,187.116 216.486,187.563 216.431 C 188.009 216.375,187.644 216.330,186.750 216.330 C 185.856 216.330,185.491 216.375,185.938 216.431 M308.438 216.431 C 308.884 216.486,309.616 216.486,310.063 216.431 C 310.509 216.375,310.144 216.330,309.250 216.330 C 308.356 216.330,307.991 216.375,308.438 216.431 M38.397 318.250 C 38.512 320.979,39.484 326.834,39.884 327.203 C 39.986 327.298,39.985 327.038,39.882 326.625 C 39.500 325.109,38.944 321.543,38.614 318.500 L 38.276 315.375 38.397 318.250 M375.888 324.161 C 375.797 324.525,375.818 324.918,375.935 325.035 C 376.052 325.152,376.174 324.855,376.207 324.374 C 376.277 323.338,376.121 323.234,375.888 324.161 M375.321 326.526 C 374.694 328.993,374.219 330.652,374.005 331.125 C 373.881 331.400,373.715 332.019,373.636 332.500 C 373.511 333.269,373.931 332.254,375.035 329.125 C 375.403 328.081,375.797 326.017,375.690 325.695 C 375.641 325.548,375.475 325.922,375.321 326.526 M40.256 328.819 C 40.244 329.224,42.087 334.397,42.411 334.868 C 42.598 335.139,42.750 335.246,42.750 335.106 C 42.750 334.965,42.658 334.743,42.546 334.613 C 42.434 334.482,42.029 333.419,41.646 332.250 C 40.955 330.144,40.267 328.445,40.256 328.819 M372.750 334.625 C 372.577 335.244,372.346 335.750,372.237 335.750 C 372.129 335.750,371.966 336.087,371.875 336.500 C 371.784 336.913,371.607 337.250,371.480 337.250 C 371.354 337.250,371.250 337.427,371.250 337.644 C 371.250 337.861,370.800 338.808,370.250 339.750 C 369.700 340.692,369.250 341.583,369.250 341.731 C 369.250 341.879,369.137 342.000,369.000 342.000 C 368.863 342.000,368.750 342.118,368.750 342.263 C 368.750 342.939,364.644 348.522,362.563 350.676 C 362.116 351.138,361.750 351.567,361.750 351.628 C 361.750 351.690,361.225 352.220,360.584 352.807 C 359.943 353.395,358.867 354.409,358.193 355.063 C 357.518 355.716,356.887 356.250,356.789 356.250 C 356.691 356.250,356.436 356.455,356.221 356.706 C 356.006 356.956,355.138 357.648,354.290 358.242 C 353.443 358.836,352.750 359.424,352.750 359.548 C 352.750 359.764,354.604 358.591,355.294 357.938 C 355.476 357.766,356.581 356.814,357.750 355.823 C 360.683 353.336,362.610 351.330,365.140 348.128 C 365.682 347.442,366.322 346.661,366.563 346.393 C 366.803 346.125,367.000 345.770,367.000 345.605 C 367.000 345.439,367.169 345.239,367.375 345.160 C 367.581 345.080,367.750 344.851,367.750 344.651 C 367.750 344.450,367.892 344.137,368.066 343.955 C 369.412 342.547,373.915 333.500,373.269 333.500 C 373.157 333.500,372.923 334.006,372.750 334.625 M44.163 338.678 C 44.552 339.608,45.250 340.754,45.250 340.462 C 45.250 340.381,45.022 339.798,44.743 339.167 C 44.130 337.782,43.603 337.337,44.163 338.678 M45.396 341.000 C 46.759 343.703,53.524 352.748,53.493 351.827 C 53.487 351.651,52.750 350.771,50.988 348.840 C 50.720 348.545,50.500 348.185,50.500 348.040 C 50.500 347.894,50.347 347.685,50.160 347.575 C 49.734 347.324,47.000 343.383,47.000 343.018 C 47.000 342.871,46.895 342.750,46.767 342.750 C 46.639 342.750,46.468 342.553,46.388 342.313 C 46.307 342.072,46.009 341.594,45.724 341.250 C 45.440 340.906,45.292 340.794,45.396 341.000 M53.908 352.250 C 54.363 353.127,60.381 358.413,61.625 359.030 C 61.900 359.166,61.791 359.019,61.384 358.704 C 60.976 358.388,60.473 357.932,60.265 357.690 C 60.058 357.448,59.751 357.250,59.582 357.250 C 59.413 357.250,59.185 357.109,59.075 356.938 C 58.965 356.766,57.862 355.725,56.625 354.625 C 55.388 353.525,54.226 352.456,54.044 352.250 C 53.750 351.917,53.735 351.917,53.908 352.250 M62.259 359.432 C 62.276 359.798,67.462 362.871,67.685 362.648 C 67.767 362.567,67.710 362.500,67.560 362.500 C 67.409 362.500,67.133 362.359,66.946 362.188 C 66.593 361.862,65.568 361.239,64.500 360.700 C 64.156 360.527,63.819 360.324,63.750 360.249 C 63.437 359.909,62.251 359.259,62.259 359.432 M351.250 360.324 C 350.769 360.617,350.227 361.002,350.045 361.178 C 349.864 361.355,349.442 361.568,349.108 361.652 C 348.773 361.736,348.500 361.877,348.500 361.965 C 348.500 362.134,347.744 362.533,344.250 364.207 C 343.081 364.767,342.299 365.231,342.512 365.238 C 343.350 365.264,350.986 361.129,352.479 359.840 C 352.818 359.548,351.989 359.874,351.250 360.324 M68.001 362.943 C 68.002 363.146,71.570 364.848,72.519 365.099 C 72.852 365.187,72.225 364.813,71.125 364.268 C 68.270 362.854,68.000 362.739,68.001 362.943 M73.625 365.559 C 74.297 365.953,77.664 367.125,78.732 367.336 C 79.971 367.581,79.420 367.179,78.042 366.832 C 76.560 366.459,74.504 365.782,73.941 365.481 C 73.310 365.145,73.035 365.212,73.625 365.559 M340.000 365.915 C 339.106 366.254,337.869 366.649,337.250 366.792 C 336.631 366.935,336.018 367.153,335.887 367.276 C 335.757 367.399,335.447 367.500,335.200 367.500 C 334.952 367.500,334.750 367.602,334.750 367.727 C 334.750 368.055,340.058 366.394,341.480 365.620 C 342.439 365.099,341.832 365.220,340.000 365.915 M333.250 367.947 C 333.250 368.055,333.475 368.161,333.750 368.181 C 334.025 368.202,334.250 368.113,334.250 367.984 C 334.250 367.856,334.025 367.750,333.750 367.750 C 333.475 367.750,333.250 367.839,333.250 367.947 M328.625 368.761 C 324.764 369.375,91.584 369.488,87.375 368.878 C 84.299 368.432,83.314 368.443,85.500 368.898 C 89.322 369.693,96.172 369.740,207.500 369.739 C 321.343 369.738,325.552 369.705,330.375 368.778 C 333.475 368.182,332.337 368.171,328.625 368.761 " stroke="none" fill="#669bd1" fill-rule="evenodd"></path><path id="path3" d="M90.063 30.929 C 90.441 30.986,91.059 30.986,91.438 30.929 C 91.816 30.872,91.506 30.825,90.750 30.825 C 89.994 30.825,89.684 30.872,90.063 30.929 M324.190 30.927 C 324.501 30.987,324.951 30.984,325.190 30.922 C 325.429 30.859,325.175 30.810,324.625 30.813 C 324.075 30.816,323.879 30.867,324.190 30.927 M327.500 31.238 C 328.125 31.450,329.676 31.583,329.479 31.407 C 329.422 31.356,328.813 31.249,328.125 31.170 C 327.282 31.072,327.079 31.094,327.500 31.238 M82.000 31.965 C 82.000 32.084,82.281 32.127,82.625 32.061 C 82.969 31.995,83.250 31.899,83.250 31.846 C 83.250 31.793,82.969 31.750,82.625 31.750 C 82.281 31.750,82.000 31.847,82.000 31.965 M80.000 32.500 L 79.375 32.700 80.000 32.708 C 80.344 32.712,80.850 32.618,81.125 32.500 L 81.625 32.285 81.125 32.292 C 80.850 32.297,80.344 32.390,80.000 32.500 M334.250 32.500 C 334.594 32.610,335.100 32.700,335.375 32.700 C 335.771 32.700,335.745 32.658,335.250 32.500 C 334.906 32.390,334.400 32.300,334.125 32.300 C 333.729 32.300,333.755 32.342,334.250 32.500 M72.815 34.843 C 72.095 35.136,71.504 35.455,71.503 35.554 C 71.501 35.652,72.034 35.500,72.688 35.216 C 73.341 34.933,74.100 34.606,74.375 34.491 C 74.667 34.369,74.719 34.288,74.500 34.296 C 74.294 34.305,73.536 34.551,72.815 34.843 M347.127 37.402 C 347.813 37.760,348.642 38.222,348.968 38.427 C 349.295 38.633,349.489 38.685,349.401 38.542 C 349.207 38.229,346.521 36.750,346.145 36.750 C 345.999 36.750,346.441 37.043,347.127 37.402 M350.521 39.334 C 351.058 39.770,353.000 40.996,353.000 40.899 C 353.000 40.735,350.839 39.250,350.601 39.250 C 350.500 39.250,350.464 39.288,350.521 39.334 M355.481 42.833 C 356.118 43.534,356.255 43.620,356.242 43.313 C 356.238 43.209,355.928 42.909,355.555 42.645 L 354.875 42.165 355.481 42.833 M55.563 46.151 C 54.915 46.890,54.820 47.211,55.389 46.739 C 55.743 46.445,56.365 45.494,56.196 45.505 C 56.157 45.507,55.872 45.798,55.563 46.151 M52.898 48.938 L 52.170 49.875 53.085 49.013 C 54.040 48.114,54.122 48.000,53.813 48.000 C 53.709 48.000,53.298 48.422,52.898 48.938 M362.177 49.125 C 362.561 49.606,362.981 50.000,363.112 50.000 C 363.242 50.000,362.966 49.606,362.500 49.125 C 361.417 48.008,361.286 48.008,362.177 49.125 M364.500 51.629 C 364.500 51.721,364.731 52.095,365.014 52.460 C 366.330 54.163,367.406 55.699,368.169 56.965 C 368.626 57.724,369.000 58.220,369.000 58.067 C 369.000 57.814,367.830 55.979,366.247 53.750 C 365.289 52.403,364.500 51.444,364.500 51.629 M45.597 58.883 C 45.369 59.231,45.228 59.561,45.283 59.617 C 45.339 59.672,45.574 59.387,45.806 58.984 C 46.321 58.085,46.168 58.011,45.597 58.883 M370.252 60.556 C 370.251 60.656,370.475 61.106,370.749 61.556 C 371.024 62.007,371.248 62.263,371.247 62.125 C 371.247 61.987,371.023 61.538,370.750 61.125 C 370.477 60.712,370.253 60.457,370.252 60.556 M42.993 64.014 C 42.841 64.296,42.761 64.659,42.815 64.820 C 42.868 64.980,43.039 64.749,43.193 64.306 C 43.511 63.395,43.405 63.242,42.993 64.014 M372.296 64.876 C 372.453 65.220,372.615 65.469,372.656 65.428 C 372.808 65.276,372.434 64.250,372.226 64.250 C 372.108 64.250,372.139 64.532,372.296 64.876 M374.515 71.000 C 374.511 71.206,374.670 71.825,374.868 72.375 C 375.066 72.925,375.231 73.206,375.235 73.000 C 375.239 72.794,375.080 72.175,374.882 71.625 C 374.684 71.075,374.519 70.794,374.515 71.000 M375.300 73.875 C 375.300 74.150,375.390 74.656,375.500 75.000 C 375.658 75.495,375.700 75.521,375.700 75.125 C 375.700 74.850,375.610 74.344,375.500 74.000 C 375.342 73.505,375.300 73.479,375.300 73.875 M375.797 76.125 C 375.804 76.400,375.895 76.963,376.000 77.375 L 376.191 78.125 376.203 77.375 C 376.209 76.963,376.118 76.400,376.000 76.125 L 375.785 75.625 375.797 76.125 M376.318 80.000 C 376.318 80.619,376.367 80.872,376.426 80.563 C 376.486 80.253,376.486 79.747,376.426 79.438 C 376.367 79.128,376.318 79.381,376.318 80.000 M38.568 82.000 C 38.568 82.619,38.617 82.872,38.676 82.563 C 38.736 82.253,38.736 81.747,38.676 81.438 C 38.617 81.128,38.568 81.381,38.568 82.000 M38.374 200.000 C 38.374 263.594,38.403 289.609,38.437 257.812 C 38.472 226.016,38.472 173.984,38.437 142.187 C 38.403 110.391,38.374 136.406,38.374 200.000 M376.874 200.000 C 376.874 262.494,376.903 288.059,376.937 256.813 C 376.972 225.566,376.972 174.434,376.937 143.188 C 376.903 111.941,376.874 137.506,376.874 200.000 M94.612 176.987 C 94.464 177.135,94.422 184.501,94.500 196.550 L 94.625 215.875 97.375 215.875 L 100.125 215.875 100.132 209.750 L 100.139 203.625 100.065 209.688 L 99.991 215.750 97.369 215.750 L 94.747 215.750 94.811 196.438 L 94.875 177.125 97.375 177.125 L 99.875 177.125 99.938 185.750 C 99.999 194.068,100.073 195.395,100.451 194.868 C 100.547 194.734,100.906 194.463,101.250 194.265 C 102.892 193.320,103.897 192.968,105.565 192.755 L 107.375 192.524 105.509 192.627 C 103.978 192.711,103.339 192.889,101.958 193.612 L 100.273 194.495 100.256 185.840 C 100.247 181.080,100.179 177.088,100.105 176.968 C 99.922 176.672,94.910 176.690,94.612 176.987 M211.429 177.246 C 211.173 178.225,211.235 212.360,211.494 212.750 C 211.660 213.000,211.744 207.112,211.746 195.054 L 211.750 176.983 214.313 177.054 L 216.875 177.125 216.941 185.938 C 217.011 195.326,216.983 195.152,218.257 194.245 C 218.647 193.967,219.339 193.568,219.796 193.358 C 220.588 192.993,220.592 192.982,219.905 193.125 C 219.510 193.208,218.778 193.553,218.280 193.891 L 217.375 194.506 217.250 185.691 L 217.125 176.875 214.344 176.805 C 211.722 176.738,211.555 176.764,211.429 177.246 M131.026 180.760 C 130.697 180.898,130.485 181.069,130.556 181.140 C 130.627 181.211,130.981 181.134,131.342 180.970 C 132.671 180.364,135.069 181.697,135.401 183.227 C 135.622 184.245,135.752 184.581,135.878 184.455 C 135.942 184.392,135.853 183.852,135.681 183.256 C 135.130 181.353,132.709 180.055,131.026 180.760 M129.406 182.009 C 129.045 182.437,128.754 182.977,128.760 183.207 C 128.765 183.437,128.924 183.271,129.112 182.838 C 129.301 182.404,129.661 181.935,129.913 181.794 C 130.165 181.653,130.301 181.468,130.217 181.383 C 130.132 181.298,129.767 181.580,129.406 182.009 M135.520 185.043 C 135.491 185.661,134.262 187.017,133.387 187.398 C 132.879 187.620,132.779 187.734,133.086 187.740 C 134.122 187.762,135.986 185.720,135.660 184.921 C 135.593 184.757,135.531 184.812,135.520 185.043 M129.514 186.641 C 129.903 187.110,131.096 187.754,131.550 187.740 C 131.729 187.735,131.537 187.583,131.125 187.404 C 130.712 187.224,130.220 186.891,130.032 186.663 C 129.843 186.436,129.576 186.250,129.439 186.250 C 129.301 186.250,129.335 186.426,129.514 186.641 M242.743 192.162 C 241.936 192.699,241.500 193.252,241.501 193.735 C 241.501 193.950,241.720 193.767,241.988 193.328 C 242.768 192.048,243.027 192.000,249.134 192.000 L 254.800 192.000 255.650 192.850 C 257.040 194.240,256.868 194.854,254.007 198.750 C 253.451 199.506,252.548 200.765,251.999 201.548 C 251.450 202.331,250.748 203.152,250.438 203.373 C 249.848 203.794,250.294 204.500,251.152 204.500 C 251.320 204.500,251.910 205.014,252.463 205.642 C 253.822 207.187,253.790 206.661,253.701 226.000 L 253.625 242.625 252.660 244.375 C 252.130 245.338,251.513 246.463,251.289 246.875 C 249.429 250.301,248.167 249.652,245.063 243.672 C 244.862 243.285,244.645 243.022,244.581 243.086 C 244.516 243.150,244.978 244.110,245.607 245.218 C 246.236 246.326,246.750 247.328,246.750 247.445 C 246.750 247.937,248.226 249.033,248.916 249.052 C 250.063 249.085,250.603 248.646,251.499 246.951 C 251.958 246.084,252.403 245.319,252.489 245.250 C 252.575 245.181,252.952 244.431,253.327 243.583 L 254.010 242.040 253.942 224.447 L 253.875 206.855 253.036 205.795 C 252.574 205.212,251.843 204.555,251.411 204.336 C 250.360 203.802,250.353 203.791,250.807 203.435 C 251.450 202.931,256.501 195.708,256.663 195.061 C 256.909 194.084,256.426 192.929,255.517 192.317 C 254.391 191.558,243.843 191.429,242.743 192.162 M160.190 192.677 C 160.501 192.737,160.951 192.734,161.190 192.672 C 161.429 192.609,161.175 192.560,160.625 192.563 C 160.075 192.566,159.879 192.617,160.190 192.677 M185.688 192.681 C 186.134 192.736,186.866 192.736,187.313 192.681 C 187.759 192.625,187.394 192.580,186.500 192.580 C 185.606 192.580,185.241 192.625,185.688 192.681 M221.125 192.751 C 220.815 192.885,221.244 192.913,222.250 192.824 C 223.144 192.745,223.922 192.640,223.979 192.590 C 224.200 192.399,221.599 192.546,221.125 192.751 M307.164 192.688 C 307.100 192.791,307.870 192.875,308.875 192.875 C 309.880 192.875,310.650 192.791,310.586 192.688 C 310.523 192.584,309.753 192.500,308.875 192.500 C 307.997 192.500,307.227 192.584,307.164 192.688 M157.704 193.259 C 157.197 193.526,156.712 193.859,156.626 193.998 C 156.377 194.402,155.797 194.289,155.672 193.813 C 155.602 193.543,155.547 193.640,155.529 194.063 C 155.493 194.925,155.842 194.930,156.954 194.082 C 157.436 193.714,158.234 193.269,158.727 193.093 C 159.254 192.905,159.418 192.772,159.125 192.772 C 158.850 192.772,158.210 192.991,157.704 193.259 M182.774 193.040 C 180.880 193.584,178.237 195.768,177.039 197.780 C 176.123 199.317,176.444 199.140,177.536 197.506 C 178.770 195.658,180.512 194.216,182.312 193.553 C 183.034 193.286,183.794 193.006,184.000 192.929 C 184.668 192.680,183.730 192.765,182.774 193.040 M189.375 193.131 C 190.063 193.322,190.697 193.483,190.784 193.489 C 192.085 193.579,195.429 197.054,196.260 199.180 C 196.517 199.837,196.732 200.231,196.738 200.054 C 196.838 197.317,191.677 192.683,188.625 192.770 C 188.350 192.777,188.688 192.940,189.375 193.131 M225.778 193.190 C 227.346 193.781,228.501 194.620,229.324 195.764 C 230.773 197.780,230.830 198.169,230.997 207.250 L 231.152 215.625 231.199 208.250 C 231.247 200.772,231.060 198.332,230.330 196.904 C 229.246 194.785,227.349 193.213,225.500 192.902 C 224.725 192.772,224.756 192.805,225.778 193.190 M304.696 193.234 C 301.318 194.555,298.546 198.053,298.144 201.504 L 298.014 202.625 298.347 201.349 C 299.431 197.196,301.827 194.512,305.622 193.200 C 306.311 192.961,306.650 192.768,306.375 192.770 C 306.100 192.772,305.344 192.981,304.696 193.234 M109.049 193.246 C 110.757 193.761,112.475 195.431,113.299 197.375 C 113.531 197.925,113.728 198.231,113.736 198.054 C 113.809 196.391,110.499 192.954,108.889 193.021 C 108.481 193.039,108.514 193.085,109.049 193.246 M129.509 193.484 C 129.340 193.800,129.269 197.586,129.306 204.421 L 129.362 214.875 129.503 204.125 C 129.580 198.213,129.668 193.352,129.697 193.324 C 129.726 193.297,130.453 193.234,131.313 193.185 L 132.875 193.096 131.321 193.048 C 130.012 193.008,129.727 193.076,129.509 193.484 M133.313 193.172 C 133.553 193.235,133.947 193.235,134.188 193.172 C 134.428 193.109,134.231 193.058,133.750 193.058 C 133.269 193.058,133.072 193.109,133.313 193.172 M151.063 193.179 C 151.441 193.236,152.059 193.236,152.438 193.179 C 152.816 193.122,152.506 193.075,151.750 193.075 C 150.994 193.075,150.684 193.122,151.063 193.179 M153.940 193.177 C 154.251 193.237,154.701 193.234,154.940 193.172 C 155.179 193.109,154.925 193.060,154.375 193.063 C 153.825 193.066,153.629 193.117,153.940 193.177 M163.725 193.510 C 164.330 193.784,164.881 193.952,164.951 193.883 C 165.099 193.735,163.414 192.997,162.946 193.005 C 162.769 193.009,163.120 193.236,163.725 193.510 M267.634 193.182 C 269.826 193.261,270.037 193.313,270.232 193.822 C 270.349 194.126,271.142 195.838,271.994 197.625 C 272.847 199.412,273.758 201.412,274.020 202.068 C 274.628 203.589,275.759 205.826,275.863 205.712 C 275.907 205.664,276.475 204.444,277.124 203.000 C 278.680 199.542,279.964 196.782,280.398 195.961 C 280.787 195.228,280.881 194.504,280.538 194.887 C 280.421 195.018,280.150 195.575,279.935 196.125 C 279.561 197.084,278.365 199.718,276.670 203.312 C 275.697 205.377,275.807 205.392,274.769 203.054 C 273.395 199.959,271.558 195.986,270.814 194.500 L 270.125 193.125 267.687 193.111 L 265.249 193.096 267.634 193.182 M282.442 193.181 C 282.891 193.237,283.566 193.236,283.942 193.179 C 284.318 193.122,283.950 193.076,283.125 193.077 C 282.300 193.079,281.993 193.126,282.442 193.181 M285.563 193.172 C 285.803 193.235,286.197 193.235,286.438 193.172 C 286.678 193.109,286.481 193.058,286.000 193.058 C 285.519 193.058,285.322 193.109,285.563 193.172 M312.750 193.308 C 315.444 194.490,317.365 196.403,318.714 199.250 C 319.007 199.868,319.009 199.867,318.863 199.138 C 318.463 197.137,315.892 194.408,313.446 193.388 C 312.402 192.953,311.776 192.881,312.750 193.308 M134.750 203.083 C 134.750 208.537,134.834 213.000,134.938 213.000 C 135.146 213.000,135.090 193.506,134.881 193.298 C 134.809 193.226,134.750 197.629,134.750 203.083 M150.000 193.436 C 149.931 193.608,149.931 198.727,150.000 204.811 L 150.125 215.875 152.799 215.946 C 156.150 216.035,155.907 216.606,155.741 209.000 L 155.608 202.875 155.554 209.313 L 155.500 215.750 152.878 215.750 L 150.255 215.750 150.190 204.438 C 150.154 198.216,150.069 193.265,150.000 193.436 M264.000 193.628 C 264.000 193.699,264.110 193.952,264.244 194.191 C 264.593 194.814,270.500 207.043,270.500 207.144 C 270.500 207.191,271.627 209.548,273.004 212.384 C 275.540 217.603,275.814 217.951,276.430 216.730 C 278.334 212.957,281.007 207.173,280.897 207.063 C 280.820 206.986,280.128 208.262,279.359 209.899 C 278.590 211.536,277.465 213.881,276.860 215.111 L 275.759 217.347 273.478 212.611 C 272.224 210.006,270.268 205.963,269.132 203.625 C 267.995 201.287,266.423 198.053,265.638 196.438 C 264.370 193.826,264.000 193.193,264.000 193.628 M285.803 196.678 C 284.945 198.409,284.287 199.870,284.341 199.925 C 284.396 199.979,285.145 198.610,286.007 196.882 C 286.868 195.154,287.526 193.692,287.468 193.634 C 287.410 193.577,286.661 194.946,285.803 196.678 M164.424 195.378 C 164.195 195.858,164.060 196.250,164.123 196.250 C 164.294 196.250,165.053 194.719,164.938 194.605 C 164.884 194.551,164.653 194.899,164.424 195.378 M241.371 194.757 C 241.283 194.898,241.417 195.343,241.668 195.746 C 242.606 197.249,246.356 202.404,247.064 203.162 L 247.799 203.949 247.028 204.119 C 246.291 204.281,244.500 206.031,244.500 206.590 C 244.500 206.727,244.905 206.366,245.401 205.788 C 245.896 205.209,246.684 204.575,247.151 204.380 C 247.920 204.059,248.321 203.500,247.782 203.500 C 247.269 203.500,241.498 195.295,241.680 194.823 C 241.827 194.439,241.598 194.390,241.371 194.757 M163.225 197.620 C 162.573 198.849,162.435 198.910,161.500 198.375 C 158.982 196.936,155.731 199.072,155.792 202.125 C 155.807 202.830,155.818 202.821,155.984 201.972 C 156.600 198.814,158.950 197.390,161.471 198.648 C 161.910 198.867,162.428 198.985,162.623 198.910 C 162.992 198.769,164.114 196.781,163.930 196.596 C 163.872 196.538,163.555 196.999,163.225 197.620 M102.582 197.985 C 101.578 198.440,100.522 199.605,100.832 199.915 C 100.914 199.997,101.108 199.787,101.262 199.449 C 101.733 198.414,102.869 197.926,104.806 197.926 C 105.832 197.926,106.401 197.841,106.205 197.717 C 105.626 197.350,103.660 197.495,102.582 197.985 M184.875 197.883 L 184.125 198.244 185.000 198.059 C 187.706 197.489,189.800 198.302,190.845 200.330 C 191.205 201.029,191.500 201.447,191.500 201.260 C 191.500 198.884,187.274 196.730,184.875 197.883 M220.125 197.667 C 218.722 198.044,216.950 200.475,217.304 201.538 C 217.364 201.716,217.543 201.344,217.702 200.710 C 218.536 197.400,223.971 196.724,225.064 199.796 C 225.129 199.977,225.264 200.048,225.366 199.954 C 225.467 199.861,225.104 199.306,224.560 198.723 C 223.549 197.639,221.788 197.220,220.125 197.667 M307.296 197.880 C 305.458 198.678,303.052 201.500,304.208 201.500 C 304.323 201.500,304.417 201.337,304.417 201.139 C 304.417 198.487,309.688 196.878,312.117 198.788 C 312.977 199.465,313.855 201.165,313.433 201.336 C 313.255 201.408,313.309 201.469,313.563 201.480 C 314.110 201.505,314.108 201.440,313.524 200.303 C 312.343 197.998,309.536 196.907,307.296 197.880 M107.292 198.688 C 108.329 199.811,108.360 200.054,108.495 208.125 L 108.625 215.875 111.250 215.888 L 113.875 215.900 111.313 215.817 L 108.750 215.733 108.750 208.234 C 108.750 199.977,108.395 198.000,106.914 198.000 C 106.773 198.000,106.942 198.309,107.292 198.688 M182.987 199.188 L 182.125 200.125 183.063 199.263 C 183.935 198.462,184.115 198.250,183.924 198.250 C 183.882 198.250,183.460 198.672,182.987 199.188 M113.912 199.625 C 113.996 200.313,114.106 200.922,114.157 200.979 C 114.353 201.198,114.204 199.350,113.987 198.875 C 113.834 198.538,113.809 198.784,113.912 199.625 M176.014 200.199 C 175.527 202.008,175.309 203.500,175.532 203.500 C 175.652 203.500,175.750 203.263,175.750 202.974 C 175.750 202.684,175.925 201.772,176.139 200.946 C 176.353 200.120,176.473 199.390,176.405 199.322 C 176.338 199.255,176.162 199.650,176.014 200.199 M319.133 200.875 C 319.231 201.425,319.401 201.973,319.511 202.093 C 319.620 202.212,319.601 201.822,319.467 201.225 C 319.153 199.830,318.900 199.564,319.133 200.875 M100.375 201.250 C 100.279 201.819,100.253 202.336,100.317 202.400 C 100.381 202.464,100.508 202.048,100.600 201.475 C 100.692 200.902,100.718 200.384,100.658 200.325 C 100.598 200.265,100.471 200.681,100.375 201.250 M225.444 206.135 C 225.482 209.430,225.547 212.519,225.589 213.000 C 225.632 213.481,225.672 211.119,225.678 207.750 C 225.685 204.381,225.620 201.292,225.533 200.885 C 225.446 200.478,225.406 202.841,225.444 206.135 M282.892 202.697 C 281.458 205.573,280.945 206.750,281.125 206.750 C 281.313 206.750,284.334 200.500,284.207 200.374 C 284.150 200.317,283.558 201.362,282.892 202.697 M196.886 201.750 C 196.946 202.506,197.015 203.767,197.040 204.551 C 197.064 205.335,197.178 205.919,197.292 205.849 C 197.584 205.668,197.526 204.437,197.123 202.250 C 196.818 200.599,196.790 200.539,196.886 201.750 M114.110 208.625 C 114.110 212.475,114.145 214.015,114.187 212.047 C 114.229 210.080,114.229 206.930,114.187 205.047 C 114.144 203.165,114.110 204.775,114.110 208.625 M217.109 208.875 C 217.109 212.588,217.144 214.141,217.187 212.327 C 217.229 210.514,217.230 207.476,217.187 205.577 C 217.144 203.679,217.110 205.162,217.109 208.875 M319.426 203.688 C 319.598 205.459,319.708 205.550,319.730 203.938 C 319.741 203.147,319.651 202.500,319.531 202.500 C 319.410 202.500,319.363 203.034,319.426 203.688 M297.853 203.092 C 297.781 203.281,297.758 204.040,297.802 204.780 L 297.883 206.125 298.004 204.437 C 298.126 202.738,298.095 202.462,297.853 203.092 M175.250 205.638 C 175.250 207.652,176.903 211.651,178.395 213.245 C 183.583 218.792,193.239 217.524,197.077 210.792 C 197.737 209.634,197.394 209.825,196.513 211.106 C 190.254 220.204,175.750 216.771,175.750 206.193 C 175.750 205.812,175.637 205.500,175.500 205.500 C 175.363 205.500,175.250 205.562,175.250 205.638 M181.210 206.688 C 181.326 207.255,181.368 207.288,181.454 206.875 C 181.511 206.600,181.685 206.292,181.841 206.191 C 182.011 206.081,181.914 206.006,181.597 206.004 C 181.153 206.001,181.092 206.110,181.210 206.688 M303.500 206.316 C 303.500 208.421,306.929 212.404,307.903 211.430 C 307.969 211.364,307.709 211.233,307.324 211.138 C 305.855 210.777,303.317 207.154,303.886 206.232 C 303.965 206.104,303.910 206.000,303.765 206.000 C 303.619 206.000,303.500 206.142,303.500 206.316 M298.140 207.750 C 298.591 211.774,303.269 216.500,306.801 216.500 C 307.449 216.500,307.275 216.274,306.514 216.128 C 302.403 215.336,299.585 212.488,298.349 207.875 L 298.014 206.625 298.140 207.750 M244.152 207.395 C 243.942 207.941,243.994 241.772,244.205 242.303 C 244.299 242.539,244.375 234.692,244.375 224.866 C 244.375 215.040,244.359 207.000,244.339 207.000 C 244.320 207.000,244.235 207.178,244.152 207.395 M192.324 207.900 C 191.275 209.417,190.059 210.608,189.125 211.034 C 188.098 211.501,188.243 211.680,189.318 211.272 C 190.116 210.968,192.359 208.636,192.885 207.563 C 192.902 207.529,193.854 208.007,195.000 208.625 C 196.146 209.243,197.127 209.707,197.178 209.655 C 197.287 209.546,196.028 208.793,194.698 208.170 C 194.188 207.932,193.704 207.627,193.621 207.493 C 193.352 207.058,192.783 207.236,192.324 207.900 M315.500 207.432 C 315.500 207.555,316.356 208.099,317.403 208.640 C 319.690 209.823,319.745 209.928,318.802 211.299 C 316.531 214.598,313.818 216.094,309.375 216.497 L 307.375 216.678 309.000 216.705 C 313.089 216.773,316.878 214.806,318.986 211.521 C 320.012 209.923,319.964 209.694,318.438 208.880 C 317.716 208.496,316.759 207.962,316.313 207.695 C 315.866 207.428,315.500 207.310,315.500 207.432 M181.504 207.750 C 181.496 209.037,183.982 211.519,185.243 211.481 C 185.826 211.463,185.812 211.439,185.060 211.166 C 183.824 210.718,182.687 209.696,182.066 208.474 C 181.759 207.870,181.506 207.544,181.504 207.750 M313.764 209.031 C 313.012 209.885,311.965 210.767,311.395 211.026 C 310.834 211.280,310.577 211.491,310.825 211.495 C 311.847 211.507,314.175 209.539,315.033 207.938 C 315.420 207.216,315.178 207.424,313.764 209.031 M211.468 213.438 C 211.327 214.264,211.352 214.750,211.534 214.750 C 211.653 214.750,211.750 214.412,211.750 214.000 C 211.750 213.336,211.552 212.942,211.468 213.438 M134.975 213.563 C 134.830 213.929,134.874 215.047,135.038 215.149 C 135.155 215.221,135.250 214.879,135.250 214.390 C 135.250 213.672,135.105 213.235,134.975 213.563 M225.542 214.938 L 225.500 216.000 228.313 215.947 L 231.125 215.894 228.452 215.814 L 225.779 215.733 225.682 214.804 L 225.584 213.875 225.542 214.938 M130.813 215.935 C 131.603 215.984,132.897 215.984,133.688 215.935 C 134.478 215.885,133.831 215.845,132.250 215.845 C 130.669 215.845,130.022 215.885,130.813 215.935 M212.813 215.935 C 213.603 215.984,214.897 215.984,215.688 215.935 C 216.478 215.885,215.831 215.845,214.250 215.845 C 212.669 215.845,212.022 215.885,212.813 215.935 M38.558 318.000 C 38.558 318.481,38.609 318.678,38.672 318.438 C 38.735 318.197,38.735 317.803,38.672 317.563 C 38.609 317.322,38.558 317.519,38.558 318.000 M376.318 320.000 C 376.318 320.619,376.367 320.872,376.426 320.563 C 376.486 320.253,376.486 319.747,376.426 319.438 C 376.367 319.128,376.318 319.381,376.318 320.000 M375.909 322.971 C 375.812 323.574,375.786 324.119,375.851 324.184 C 376.018 324.352,376.322 322.591,376.192 322.201 C 376.133 322.023,376.005 322.369,375.909 322.971 M372.296 335.124 C 372.139 335.468,372.108 335.750,372.226 335.750 C 372.434 335.750,372.808 334.724,372.656 334.572 C 372.615 334.531,372.453 334.780,372.296 335.124 M42.750 335.327 C 42.750 335.507,42.917 335.873,43.122 336.140 C 43.462 336.584,43.470 336.556,43.222 335.813 C 42.939 334.964,42.750 334.770,42.750 335.327 M43.500 336.931 C 43.500 337.076,43.732 337.460,44.015 337.785 L 44.530 338.375 44.091 337.625 C 43.512 336.638,43.500 336.623,43.500 336.931 M370.736 338.436 C 370.171 339.563,370.179 339.675,370.762 338.802 C 371.065 338.349,371.260 337.927,371.197 337.863 C 371.133 337.800,370.926 338.058,370.736 338.436 M45.259 340.375 C 45.260 340.512,45.491 340.906,45.772 341.250 C 46.112 341.665,46.197 341.707,46.025 341.375 C 45.604 340.560,45.258 340.107,45.259 340.375 M366.500 345.500 C 366.206 345.913,366.022 346.250,366.091 346.250 C 366.160 346.250,366.456 345.913,366.750 345.500 C 367.044 345.087,367.228 344.750,367.159 344.750 C 367.090 344.750,366.794 345.087,366.500 345.500 M365.188 347.362 C 364.809 347.836,364.500 348.301,364.500 348.396 C 364.500 348.491,364.837 348.144,365.250 347.625 C 365.944 346.751,366.098 346.500,365.938 346.500 C 365.903 346.500,365.566 346.888,365.188 347.362 M360.360 352.818 L 359.125 354.125 360.370 353.000 C 361.055 352.381,361.665 351.847,361.725 351.813 C 361.784 351.778,361.780 351.696,361.714 351.631 C 361.649 351.565,361.039 352.099,360.360 352.818 M55.857 353.936 C 56.259 354.381,56.644 354.690,56.711 354.622 C 56.778 354.555,56.786 354.472,56.729 354.438 C 56.672 354.403,56.288 354.094,55.875 353.751 L 55.125 353.127 55.857 353.936 M355.481 357.167 L 354.875 357.835 355.555 357.355 C 355.928 357.091,356.238 356.791,356.242 356.688 C 356.255 356.380,356.118 356.466,355.481 357.167 M60.779 358.203 C 62.105 359.211,63.080 359.832,62.914 359.562 C 62.725 359.258,60.575 357.750,60.329 357.750 C 60.248 357.750,60.451 357.954,60.779 358.203 M352.051 359.607 C 350.834 360.468,350.763 360.605,351.803 360.087 C 352.314 359.833,352.789 359.484,352.858 359.313 C 353.017 358.918,353.034 358.912,352.051 359.607 M349.375 361.267 C 348.534 361.806,348.650 361.899,349.613 361.460 C 349.963 361.300,350.250 361.075,350.250 360.960 C 350.250 360.699,350.277 360.689,349.375 361.267 M347.000 362.625 C 346.381 362.956,346.004 363.232,346.162 363.239 C 346.320 363.245,346.939 362.970,347.537 362.628 C 348.931 361.831,348.487 361.829,347.000 362.625 M342.500 364.750 C 342.019 365.013,341.738 365.229,341.875 365.229 C 342.012 365.229,342.519 365.013,343.000 364.750 C 343.481 364.487,343.762 364.271,343.625 364.271 C 343.488 364.271,342.981 364.487,342.500 364.750 M76.500 366.375 C 76.844 366.572,77.294 366.732,77.500 366.731 C 77.706 366.731,77.496 366.566,77.034 366.365 C 75.969 365.903,75.684 365.908,76.500 366.375 M338.125 366.384 C 337.712 366.573,337.544 366.729,337.750 366.730 C 337.956 366.731,338.406 366.572,338.750 366.375 C 339.540 365.923,339.118 365.929,338.125 366.384 M79.407 367.250 C 79.650 367.485,81.702 367.900,81.493 367.672 C 81.420 367.592,80.872 367.418,80.275 367.283 C 79.678 367.149,79.288 367.134,79.407 367.250 M334.890 367.281 C 334.348 367.408,333.842 367.580,333.765 367.664 C 333.539 367.910,335.602 367.484,335.863 367.231 C 335.993 367.104,336.049 367.011,335.988 367.025 C 335.926 367.039,335.432 367.154,334.890 367.281 M82.000 367.989 C 82.206 368.128,82.591 368.244,82.854 368.246 C 83.494 368.251,83.294 368.108,82.375 367.903 C 81.827 367.780,81.726 367.803,82.000 367.989 M84.063 368.422 C 84.303 368.485,84.697 368.485,84.938 368.422 C 85.178 368.359,84.981 368.308,84.500 368.308 C 84.019 368.308,83.822 368.359,84.063 368.422 M85.813 368.672 C 86.053 368.735,86.447 368.735,86.688 368.672 C 86.928 368.609,86.731 368.558,86.250 368.558 C 85.769 368.558,85.572 368.609,85.813 368.672 M327.250 368.750 C 326.001 369.013,327.282 369.024,328.750 368.763 C 329.765 368.582,329.789 368.563,329.000 368.564 C 328.519 368.565,327.731 368.649,327.250 368.750 M89.942 369.181 C 90.391 369.237,91.066 369.236,91.442 369.179 C 91.818 369.122,91.450 369.076,90.625 369.077 C 89.800 369.079,89.493 369.126,89.942 369.181 M324.316 369.179 C 324.696 369.237,325.258 369.235,325.566 369.176 C 325.873 369.117,325.563 369.070,324.875 369.072 C 324.188 369.073,323.936 369.122,324.316 369.179 " stroke="none" fill="#3777b9" fill-rule="evenodd"></path><path id="path4" d="M242.804 192.390 C 241.988 192.962,241.220 194.500,241.750 194.500 C 241.887 194.500,242.000 194.320,242.000 194.100 C 242.000 193.880,242.349 193.374,242.776 192.975 L 243.553 192.250 248.940 192.250 L 254.328 192.250 255.164 192.888 C 256.559 193.952,256.320 195.079,254.078 197.989 C 253.914 198.201,253.088 199.331,252.242 200.500 C 250.379 203.074,249.912 203.500,248.956 203.500 C 248.267 203.500,246.500 202.052,246.500 201.487 C 246.500 201.382,246.071 200.750,245.546 200.085 C 245.021 199.419,243.958 197.948,243.183 196.816 C 242.409 195.684,241.723 194.841,241.660 194.944 C 241.457 195.271,247.345 203.500,247.782 203.500 C 248.321 203.500,247.920 204.059,247.151 204.380 C 244.166 205.627,244.208 205.311,244.300 225.750 L 244.375 242.625 244.976 243.625 C 245.307 244.175,245.966 245.356,246.442 246.250 C 247.310 247.883,248.061 248.755,248.590 248.744 C 248.747 248.741,248.633 248.545,248.336 248.307 C 248.040 248.069,247.211 246.806,246.495 245.500 C 245.779 244.194,245.065 242.967,244.909 242.774 C 244.703 242.520,244.625 237.600,244.625 224.889 L 244.625 207.355 245.464 206.295 C 247.544 203.669,251.552 203.878,252.887 206.683 C 253.555 208.087,253.488 241.709,252.814 243.190 C 251.821 245.375,250.121 248.053,249.521 248.379 C 248.938 248.696,248.926 248.731,249.394 248.740 C 249.952 248.751,250.636 248.077,251.289 246.875 C 251.513 246.463,252.130 245.338,252.660 244.375 L 253.625 242.625 253.701 226.000 C 253.790 206.661,253.822 207.187,252.463 205.642 C 251.910 205.014,251.320 204.500,251.152 204.500 C 250.294 204.500,249.848 203.794,250.438 203.373 C 250.748 203.152,251.450 202.331,251.999 201.548 C 252.548 200.765,253.451 199.506,254.007 198.750 C 256.868 194.854,257.040 194.240,255.650 192.850 L 254.800 192.000 249.081 192.000 C 244.302 192.000,243.270 192.064,242.804 192.390 M175.568 204.500 C 175.568 205.119,175.617 205.372,175.676 205.063 C 175.736 204.753,175.736 204.247,175.676 203.938 C 175.617 203.628,175.568 203.881,175.568 204.500 " stroke="none" fill="#5a7885" fill-rule="evenodd"></path></g></svg>